<?xml version="1.0" encoding="utf-8"?>
<!-- Generator: Adobe Illustrator 24.0.1, SVG Export Plug-In . SVG Version: 6.00 Build 0)  -->
<svg version="1.1" xmlns="http://www.w3.org/2000/svg" xmlns:xlink="http://www.w3.org/1999/xlink" x="0px" y="0px"
	 viewBox="0 0 1000 1000" style="enable-background:new 0 0 1000 1000;" xml:space="preserve">
<style type="text/css">
	.st0{display:none;}
	.st1{display:inline;fill:none;stroke:#000000;stroke-width:50;stroke-miterlimit:10;}
	.st2{display:inline;}
	.st3{display:inline;fill:#FFFFFF;stroke:#000000;stroke-miterlimit:10;}
	.st4{display:inline;fill:#FFFFFF;}
	.st5{fill:#FFFFFF;}
	.st6{display:inline;fill:none;stroke:#FFFFFF;stroke-width:90;stroke-miterlimit:10;}
	.st7{display:inline;fill:none;stroke:#FFFFFF;stroke-width:100;stroke-miterlimit:10;}
	.st8{display:inline;fill:none;stroke:#FFFFFF;stroke-width:20;stroke-miterlimit:10;}
	.st9{fill:none;stroke:#000000;stroke-width:50;stroke-miterlimit:10;}
	.st10{fill:#FFFFFF;stroke:#000000;stroke-miterlimit:10;}
	.st11{fill:none;stroke:#000000;stroke-miterlimit:10;}
	.st12{fill:none;stroke:#000000;stroke-width:10;stroke-miterlimit:10;}
	.st13{fill:none;stroke:#FFFFFF;stroke-width:3;stroke-linejoin:bevel;stroke-miterlimit:10;}
	.st14{fill:none;stroke:#000000;stroke-width:12;stroke-miterlimit:10;}
	.st15{fill:#FF0000;}
</style>
<metadata><?xpacket begin="﻿" id="W5M0MpCehiHzreSzNTczkc9d"?>
<x:xmpmeta xmlns:x="adobe:ns:meta/" x:xmptk="Adobe XMP Core 5.6-c148 79.164050, 2019/10/01-18:03:16        ">
   <rdf:RDF xmlns:rdf="http://www.w3.org/1999/02/22-rdf-syntax-ns#">
      <rdf:Description rdf:about=""
            xmlns:dc="http://purl.org/dc/elements/1.1/"
            xmlns:xmp="http://ns.adobe.com/xap/1.0/"
            xmlns:xmpGImg="http://ns.adobe.com/xap/1.0/g/img/"
            xmlns:xmpMM="http://ns.adobe.com/xap/1.0/mm/"
            xmlns:stRef="http://ns.adobe.com/xap/1.0/sType/ResourceRef#"
            xmlns:stEvt="http://ns.adobe.com/xap/1.0/sType/ResourceEvent#"
            xmlns:illustrator="http://ns.adobe.com/illustrator/1.0/"
            xmlns:pdf="http://ns.adobe.com/pdf/1.3/"
            xmlns:xmpTPg="http://ns.adobe.com/xap/1.0/t/pg/"
            xmlns:stDim="http://ns.adobe.com/xap/1.0/sType/Dimensions#"
            xmlns:xmpG="http://ns.adobe.com/xap/1.0/g/">
         <dc:format>image/svg+xml</dc:format>
         <dc:title>
            <rdf:Alt>
               <rdf:li xml:lang="x-default">交大</rdf:li>
            </rdf:Alt>
         </dc:title>
         <xmp:CreatorTool>Adobe Illustrator 24.0 (Macintosh)</xmp:CreatorTool>
         <xmp:CreateDate>2021-07-06T13:00:32+12:00</xmp:CreateDate>
         <xmp:ModifyDate>2021-07-06T13:00:32+12:00</xmp:ModifyDate>
         <xmp:MetadataDate>2021-07-06T13:00:32+12:00</xmp:MetadataDate>
         <xmp:Thumbnails>
            <rdf:Alt>
               <rdf:li rdf:parseType="Resource">
                  <xmpGImg:width>256</xmpGImg:width>
                  <xmpGImg:height>104</xmpGImg:height>
                  <xmpGImg:format>JPEG</xmpGImg:format>
                  <xmpGImg:image>/9j/4AAQSkZJRgABAgEASABIAAD/7QAsUGhvdG9zaG9wIDMuMAA4QklNA+0AAAAAABAASAAAAAEA&#xA;AQBIAAAAAQAB/+4ADkFkb2JlAGTAAAAAAf/bAIQABgQEBAUEBgUFBgkGBQYJCwgGBggLDAoKCwoK&#xA;DBAMDAwMDAwQDA4PEA8ODBMTFBQTExwbGxscHx8fHx8fHx8fHwEHBwcNDA0YEBAYGhURFRofHx8f&#xA;Hx8fHx8fHx8fHx8fHx8fHx8fHx8fHx8fHx8fHx8fHx8fHx8fHx8fHx8fHx8f/8AAEQgAaAEAAwER&#xA;AAIRAQMRAf/EAaIAAAAHAQEBAQEAAAAAAAAAAAQFAwIGAQAHCAkKCwEAAgIDAQEBAQEAAAAAAAAA&#xA;AQACAwQFBgcICQoLEAACAQMDAgQCBgcDBAIGAnMBAgMRBAAFIRIxQVEGE2EicYEUMpGhBxWxQiPB&#xA;UtHhMxZi8CRygvElQzRTkqKyY3PCNUQnk6OzNhdUZHTD0uIIJoMJChgZhJRFRqS0VtNVKBry4/PE&#xA;1OT0ZXWFlaW1xdXl9WZ2hpamtsbW5vY3R1dnd4eXp7fH1+f3OEhYaHiImKi4yNjo+Ck5SVlpeYmZ&#xA;qbnJ2en5KjpKWmp6ipqqusra6voRAAICAQIDBQUEBQYECAMDbQEAAhEDBCESMUEFURNhIgZxgZEy&#xA;obHwFMHR4SNCFVJicvEzJDRDghaSUyWiY7LCB3PSNeJEgxdUkwgJChgZJjZFGidkdFU38qOzwygp&#xA;0+PzhJSktMTU5PRldYWVpbXF1eX1RlZmdoaWprbG1ub2R1dnd4eXp7fH1+f3OEhYaHiImKi4yNjo&#xA;+DlJWWl5iZmpucnZ6fkqOkpaanqKmqq6ytrq+v/aAAwDAQACEQMRAD8A9U4q7FXYq7FXYq7FXYq7&#xA;FXYq7FXYq7FXYq7FXYq7FXYq7FXYq7FXYq7FXYq7FXYq7FXYql/mHzBpPl7RLzW9XuFtdNsIjNcz&#xA;N2UbAAd2YkKoG5O2KvlPzR+Y35m/mlqM+l2B1HQdLvrT1fLuh6dHWe/SQyost7c84/SipExcFuNK&#xA;UU/bxVKb/wDKLy7o09nH5nk8u6bqsFpL+kNJ1HXLlL6eWXl6UztEHhidQF9NVJXer8sVRmmXP5x/&#xA;lLqFjY2Ul/cX93cyBPKN6Bd2VxbEMyPa3KSMBL8PAolHLcftBuOKvp/8uPzB0Tz75Vt/MOkckjkJ&#xA;iurWSnqQXCAGSJ6bVHIEHuCDirJ8VdirsVdirsVdirsVdirsVdirsVdirsVdirsVdirsVdirsVdi&#xA;rsVdirsVdirsVdirsVfPv/OV2v25k8o+VLsTy6RqF3JqOvW9oCZ2srAKxGwNFId2qRQcOR6YqyH8&#xA;rrPR/wAvPyptvNGsGS91LU4beR3jHr3UomCR2dlbF3ZmFOPFefHkSdl6KvEo/wAw/LGo+fdW8y+Z&#xA;/JdrqGmXFgLqLTltozKJrmSNy883p1laNBx5MNq9q4q908z+dvyx88+S7G01C9+p6jq0scWkxGC5&#xA;e7t9TRFmX01ijWfjG3wvLHxUrVeYriryz/nGrX4dM/NOfRrb60LXzHpKT3qXVXLarZGk8qyMW5o/&#xA;71uQbq3E7igVfVuKuxV2KuxV2KuxV2KuxV2KuxV2KuxV2KuxV2KuxV2KuxV2KuxV2KuxV2KuxV2K&#xA;uxV2Kvnj/nJ3S76284+Sdes7uPTkv/rnl291O5X/AEa3S/j9JWkf4QlY5pjyJ2pUdDirem+Q/wDl&#xA;a3kvytr2gea7zRr7SLe2sb+1SSSWB5bHjxdkSWPjIyHl6m5ZStQpxV82NoGvWGo6rot/JdNfWc0d&#xA;nMZAeCvFcLG6iRn4+mCKM1eNPbFX055e/IjRPIdtpXnfXdble+0B5b7UYoi7Wk3OPhHDAvOJg3Iq&#xA;VJrzfYrQ0xVhf5CQ32t/nNpl5JqUWorouhz300kQqsUmpytL9W9Sp5yK14WckLxbklPhqVX1jirs&#xA;VdirsVdirsVdirsVdirsVdirsVdirsVdirsVdirsVdirsVdirsVdirsVdirsVdirGfzH8haT578o&#xA;3vlzUj6aXIDW10qhnguE3jmQGm6nqKiq1Fd8VfKp1jzp+WWo6nofmz0dLh/R5so4EtZzpeuwpHKj&#xA;O81vInC4kiKKsqx8yQA7J8VVUZbL+QwWCBvIsaXOoW7OlmnmPlBNRucbPcfWGWErwWqvIpHMji9M&#xA;VS65856hrdnovk3yHYwzw2V9Mlr5EgjnvrRUWSSRp769lmMdwpuH5qp5xcQG5L9nFX0n+Sv5UQfl&#xA;75cmiuJlu/MOrSC61y9TaNpt+McS0WkcXMgbbkk7VChV6FirsVdirsVdirsVdirsVdirsVdirsVd&#xA;irsVdirsVdirsVdirsVdirsVdirsVdirsVdirsVQmqaRpWrWT2Oq2UGoWUlDJa3USTRNQ1HJJAym&#xA;h9sVYBL/AM43/klLOZm8rQBya0Wa5RP+AWUJ+GKs08u+UvLHlq1Np5f0q10uBgokW1iSIvwqFMjK&#xA;AzkVO7EnFU2xV2KuxV2KuxV2KuxVi/nH8z/IHkxV/wAS63bafKwBW2JaW4KtUBhbxCSYrt9rjTFW&#xA;GQf85U/knLO0T61NAg+xPLZ3YjavhxjZh/sgMVelaD5i0HzBp66joeoW+p2LGguLWRZUDUBKsVJ4&#xA;sK7qdxiqY4qpXd3a2dtLdXc0dvawKZJp5WCRoiipZmYgKB4nFXmWsf8AOTf5LaZPJbnXxezxNxdb&#xA;KCe4XrSqyqnosPdXOKpt5T/PX8qPNV4tjo/mGBr96CO0uVktJHZjQJGLhYvUav7KVOKs8xV2KsZ8&#xA;4/mX5D8mRq3mbWrfTnkAaO3YtJOykkclgiDystR1C0xVhcP/ADlT+SUk7RNrcsKDZJ5LK7EbfLjE&#xA;zfeBir0nQPMmgeYtOTUtC1C31Kxc0FxbSLIoagJVuJ+FhXdTuMVTHFVO4uLe2gkuLmVIbeFS800j&#xA;BERFFWZmNAAB1JxV5lrX/OTP5L6VcS2za+L24hbi62ME9wh91mRPRYe6ucVTPyv+fP5S+Z7xLHSv&#xA;Mdv9ekoEtrpZbR2ZiAET6wsQd6n7KEnFWfYq7FWNecPzK8ieTY1fzLrVtpzuA0du7F7hlJI5LBGH&#xA;mZajqFpirCYf+cqvySedo21qaGMbLcPZXfpt8uMTN96jFXpHl7zP5d8x6euoaDqVvqdmaAzWsiyB&#xA;WIB4vxNUah3VqEYqmeKrJpoYInmmkWKGNS0kjkKqqBUlidgBirzbWv8AnJH8mdJuXtpfMUd3LH/e&#xA;fUYprtFA2r6sKPFSvg2Kpj5V/PP8qvNF4tjpXmCD9IO3BLO6WS0lZ/5EW4WPm3stcVZ3irsVdirs&#xA;VdirsVeUfn1+bc/kyw07QtEuLaDzV5ikEFldXbqsFlCWCPeTcgwopaichStT8XEqVXmP5bfkVqGv&#xA;Qya5qV2oMeovfW/m4rcTapqPou6xyRq8pEUZ2cfCxc05A9FVRtvbjzP5t1ry1a6R5zsV8wySW2s+&#xA;Yr+DjazRrGxhkuojbwMi8FCxDkhVaKNtsVY15m8seb/yi82nXdEubDQxaWIkVE9WOw1xbVwJo5Y5&#xA;JHSKdonBEa0+KvA8irMq+mvJHnzRPNvkuy82WcghsLmEy3AkYD6u8dRPHIx4/wB2ykE9CN+hxV8z&#xA;+ZfNOv8A52eZYl02aG68tWmpfVdL8nmSVHvIokLy6hfmJ43jjBKBakdeK0IZyqzHzP8AlzYeQvKN&#xA;1b3dvrOu2+t3yXM3lzyzbOllFJz5LyZkueKRtwVAWXkQpCVqQqgta/KbWPO/lmbzjJpl5e6rPaPY&#xA;JoPmdHh1GGOCQiKaKeE2x5rTkA0fxqfiLHZlUZ+Qv5qanpvmCz/LjzNrCayL2zjutA1Jm/0mF+Ba&#xA;bTrwEsyyRlHCcjXbYlWSirN/z6/NqbyTpVhpOjTW8XmvzDKLbTZrplWC0jLBJLubnVQqFgF57V3+&#xA;IKVKry78t/yL1HzCLnWdRvUfhqZvrXzk8c02o6h6DsI2iWSYrFFX468atsDy6Kqmcdt/iLzjrPlq&#xA;10rznaLr7NZ6v5lvoClpNEkbem9xE1vAyIyrxjoyEA0FBtirFfM3lDzf+U3mka7ol1Y6H+j9P5RT&#xA;IJIrLXPqpT1IbiJ5XSOZ4uTcVpVh8NGKuVX0v5B8+6N5z8mWPmmxYQWtzGWuYpGFbeWOomjkb4fs&#xA;MDuQKijdDir5o82+b/MH50eY1h0meO68s2uprZ6Z5QErRyX8cSGWa9vjG8MkcXwrwqRStFoQ74qz&#xA;2P8ALLyl5btLvyvrWsTouvGXUpfL+lKltYM1uAXjX1RM7rCvEV+FSQCw5UxVU/MP8jE1w3+tWN7H&#xA;5wu1shZCx1SQtPGq0ZJILq2aLjKnEkco6vU8i3QqpX+RH5palofmHT/y28z6xHrEV7aRzaHqLMRc&#xA;20/E+rpl2rFmVo3R1j5GuwAqrKFVZ9+fP5syeRdFstP0qW3TzR5gl+q6XJdMqQWykhZLuZn+ALHz&#xA;FOe1TU1VWGKvKPy3/I7UfMxvNa1S9juGXUvrcXnJ0uJb+9NswAFukkoCRc1Y8+PI0C0O4RVM0ibW&#xA;/OOq6Ba6P51hOvMNP1fzNeW/C1nhXeOS5ja3hZIwtRH8SFVYgUBpirGfM/krzd+U3maHW9Du7DQz&#xA;YaexivE9WOy1s2vp8ra6heR0inki5MANmYbEPR8VfSn5ceftK88+TbDzNYUijuUIurZmDNbzx7Sx&#xA;Odvst0JAqtGpvir5t8+/mDrP5teYxpugXEd95fttSSz07ylEzrLqqxKZJ7y8aOSFo7dQo4cmH0EM&#xA;wVTrzf8AlZH5H8qXbaq2uahba7cfWL3y35OtzBpsHALyFw8kdypjQcUUuEMlK8ahiFWp/wApPMPn&#xA;DQD5tksb/Ur2O2bTR5d85JINR9CIxASw3URtWWQcGdG9Orlm5MQaYqjvyE/Ne+0jW9M/L3zLrS6w&#xA;mo2kcmkXjmlzZ3agrPpd2GLNyjdGWMk9gBswCqvpLFXYq7FXYq7FXy/54sdY138/PNCyNatpdsND&#xA;8tu1y5E8MerBLpPqq1Tdpo3DlW5qrkqDvir0D8y/zPstJt4PLvlW+0mKO19WDVpLucJHbQ2vGFrV&#xA;FV0Ilq3fYKpxV5n5E87ecvL2jaPbWet2eoXl1Jcy3ccElvKl36TM6LHK4+BEBER4ABa9RQYqzbzl&#xA;5+m856RfWdhptnNY6HY22uTa99djkijvIWWQxwxRFo5QBUfvJlBr3puq84s9Y17y7+VH506LIlta&#xA;SW13Z3At7BudtENfdIpoYXI3jWGij/M4q9Y/JjRo/K+k6/qeurYw3vlyGPR7qWzkBgig023WSQiR&#xA;2UfvQUkkZ1Q8qhvsjFWPTee4vMXnHy9cS6vpzT+m5ks7O+inV3ke2eL0acGkSLhOrin2hUgkVCqY&#xA;/kl+dmta9q82ieaL2yu7id3/AEbdWstuxk4lAE9OIrSgJY7E74qw78/NNvtB8y3eraNFYxQaTqel&#xA;+ZJJWfjdRzyyfVgIwfUqk0oLyqyqo4qdyaYqrfmBbaxr358eZ142cmn6faaT5dke6fjNBHq5SZWt&#xA;R8HxtIzIzBuSq5Irir1b8xvPOmeVhbeW7a6sbBBYNM0U13HbzpArCGL0InqXUBZGc1FAvffFXlFp&#xA;+aOteUfKvl86PqFhqd9dtFHfxm9twlyYkKyCB2WTb1SBRF+EfDQbYq9V8z6rpfnX8oJ9dieCQ2kS&#xA;alHMjq8UVxaUmYqwdVbivJSpah6HbFXiljrHmPyz+XP526XcR2trPFLZXf1TT39S0h/xEAkqQNQf&#xA;CsLKB4U28cVej/kz5d1jStF8wXSWVi/mXR9Ph0fTbeykAjL29t6yAyOXANw0kbyO8YPKoIouKvLt&#xA;J87ale+d9J03WvLWo6dqEGmaja1vrl5GjV4ZGkEiy26O/Nreu7/tbbChVTv/AJxr1fzxqvmLUrnS&#xA;bH6loVxcyT6jDdXNwY4j6okAiVkkRnk+syVVVjBpyrsBiqp/zkPpuo6FrGp6vokVlHHpVxpnmqd5&#xA;GK3Uc/1n6khtwrMzCaZy0oKqgoDUscVW/meur67+efmOJUspLPTNO07QQ12wV4k1Zkk9SBS0YMjP&#xA;K0bNyqqMSK0AxV6h5+/MbTdCt7DQPLd/pkcdpI8GsNc3ca/VLWzVFeHg0iyes3qpSvRak4q860jz&#xA;v5i0Ly1ow8uavaXVxdNdGeFJLaRbuS3VOIjkYOFQOeLcF+Hl2pirJfM/5gHzzpV5pEGm2k1hp+lN&#xA;rl7rkd5HMlvc2xMipbxwl1kIUUbnKinkRWg+JVgOgav5k8ueSPzutLs20EwjstSjg05+drDJ5hgY&#xA;v6DUUbRPGKrt8Pw1FDirL/yTi0ryrJrWsebp9M01tAtdN8vRXcUw+rxhImlcszNXnO0qszOityLK&#xA;BQbqvNfPf5ha95w84Wt5eahYfolEM2jafDcQyMga8SlSrHnIY7cc+O3KoxVl3kb/AJyi1y0jvf8A&#xA;F5tNRUxSy6dNBcW0BaaJCUg2CLxkagMm/EmlNsVYv+a1zr8Elx5ktdN07TLiW00bztdwpO800EzX&#xA;Zs4mtpAELNK8/KZfTCL15Mx3VfY+KuxV2KuxV2Kvlv8AOzRz5a/O+PzD9TubufzXa20egS2zAcNY&#xA;tpIbcRuhkiV0a3ABqQfj+EgiuKs5/NG5/LvzT+Vd3rupiWC4RWt2tYmuma21J92t7m2g6N6q8XLx&#xA;8hUnYnFXh/kS98saNceUrvX0uLfRI01RGe2tpppRymUxhkdZCganxEAt/Ltvir2/85b7ydo2nXLa&#xA;XYO+sahaRNrcunUFxDo9tMlxLNIhZIlkNaRtKBUkipNFZViH5b/la3mP8i/PdzZ2L2DedJ5bvQNP&#xA;ZzIy21i/qafEzyHkayoy8mO60bviqJ/5x386aEdObRrnT5bPy9qMUOmTSagedu2sRwD65ahnd/hu&#xA;fVaRUkAavIfENkVSTzJ5d/KzRfzf8uab5Ns7m31LTbuW31KCRblrWJCjyAQySE1YvI3crTpTbFWV&#xA;f84uj8tNM8s3l7Zeraa9b26v5invEkhgiDuaCF5tvTPpj9quwrTpirCfOzxfmd+aWmaINLu0utY1&#xA;C1vrS8cmOBPLsEbCSVYyal5zHz5OvH4VEdQ3JlU3/PTRF8u/nND5iNhc3j+a7KK10Wa3kCGLWreS&#xA;KFFcF4laN4OKMGYVDtxIK1CrPvPk35Q+bvJUHmvznZyrcWKtp9z9VWY39lcTq0c1q8cY5ghuQ4yp&#xA;t1oDir590C08ixSeUJPM8F3H5btpNSkia2huDcKVuA0HqKORANBz6/5O2+Kvo382vOWlaT5Ej0bR&#xA;YpZhJZx3M1rZcRPaaPbqskk/FmQR0jUInqfDyNKMaKyrz78rfyuTzH+TPn+6sLOSxi86zTSeXbCW&#xA;TkVtrBmbT1d5Czf31VJY7gV74qrf843+fNKsQLCSyuNK0q6S306e5vG/dLrlrEWuIldmbgLgMZFS&#xA;SjcqhaqPhVTb87JvMVj5u07WPNN/odj5PsDdrozCK+bUHkubJ4SkkqwyQBi7E8PUUFRWhK7Kpv8A&#xA;847Xmv6f5GJ1LV/L135K0yORNP1DTPrcToyOWm+sNdx268F5fa41r1JxV5d+Y0kf5nfmXpfl8aZd&#xA;pdazfWlzpt4xKwDy/Gsi3FwELgs03o+oCyhSqrx68mVTb/nIHQo9B/Nm38ySWFxdReadPWx064tn&#xA;CtFrUDqkPMM0aFHh4xlXbdWcruuyrPPzA1LyD5t/KzUNc1pJbe8tYZLK7s42uw9tfyOE9G5tYCHK&#xA;meNf7yPlx32OJTEgHd4j5RvfLejW3ke71hLi20GKbXEke3tpZp1jkaIR1R1k48tuRoSP2PHFD2z8&#xA;1tQ8o6JoD3Pl7T+ev3mlUmNkONzBosQWea4li5Ig4qoVXlH2iOv2SqxL8nPy0g8xflb+YV5YQSWN&#xA;j53lnh8u21wxdktbL1FsnkZmc19VyrVP7O2xGKpJ+R3mPyzbNdaDr2jzWPlXV4LXR9Wl1MlraLX7&#xA;JGM0XqO5MSzhuah6MJNl+FdlWOfm75V8iaB+Zmn6V5Rs5IE05UhvLeRbx1hkYvMTHNIzq/ITA7kg&#xA;b+wxVl3/ADjfo/5R3flrUYdfso31mC1uH1Y6hDItlBYmQAtFLcDitQRybkG69BirG/NNtY/mH590&#xA;3QLbR76JNVnsYfLdxLJL6K+XbMyC5ujzlZpDN6SujOtCtKHluVX1zPc3V1cSWliwjEVFursjlwLC&#xA;vCJT8Jk4mtW2XbZumKoefSbGMgSTX1xcvvxS8uEZz+03BJI40HyCqOgpsMVUTZa3aETafyKDdrO4&#xA;unuOftymVnRjsNpeI68W7qpxZ3S3VusoR4mO0kMgAeNu6OASKj2JHcEjFVbFWNfmH5A0Dz55YuPL&#xA;+tIfRkIkt7mOglt50rwmiJBowqR7gkdDir5xvfLP5z/lneFksb/VvUvWnuPOekSXN/NPavzaX65p&#xA;skvF5ELh1LFEqKFnG+Kqk/5++dNSk1ex0dtXlvnBGlJbaIjXFy/ElEuFjdHgVT8DNG8jftLT7OKp&#xA;h5U/I3zh561aHV/OVtc+WvLckMI1HSZL64uNQ1eSIiT1L3m/CINLViAileiqD8eKvpu1tba0tobW&#xA;1iSC1t0WKCCNQiJGg4qiqKAKoFABirwn82/yA1G61qXzX5GVJbi6nW613ypNcS2tnqEqBgJVeGSH&#xA;hN+8b7TAEktUGoZVgn/K4fzG8qabe2erafrWl3C3P+4vR7+xN5ALUSVFNSmLO7R14rSHhxQU+Ils&#xA;VX3+u/mp+ZF9LY6douq+YNIurX07a81KKXQdOt7lnpJMy28xW5WJB+7HqB/iPJXoKqvafyc/Jy38&#xA;h2c1/qd62teb9Riii1PWJizlYolVUtoGkq4iQIo33biKgAKqqsn8/wDkPQPPPlm48v65EXtpiJIZ&#xA;koJYJ1B4TRMa0dan5ioOxOKvm+98qfnJ+WV68kVhf62Zb8TzedNKlub24mtG5eqt5pjylXdVYOvI&#xA;qoZQC7iuKq0n/OQPnO/l1Wx0t9VnvWjC6SlvoaG4uZuNQk6JKrwqD8LMju37S0pTFUX5T/I/zn57&#xA;1S31Xzha3Xljy89vCmq2Et9cXGo6w8ZSQtd8n4wq0qcqcFZey1+MKvpuzs7Sys4LKzhS3tLaNIbe&#xA;CMBUjjjUKiKo2CqooBirw383vyB1C/1qXzb5H4G9uZo7rXfLEs8trZ6lJDyKSh4Hh4TVY1qwBJLc&#xA;lPLkq861D8zfPWg6TqOmeZNF1W2i+tH9FaBq2nrqVp9XUgqBqVzzZzGaqlISvFRuWNQquF95985S&#xA;tpPlfyxfar5fmtyLf6xat5d0u3vWZPUmZbWYRzrGq8kBdXq5ryAAxV7f+TX5MQeQ7aXUdVvW1rzf&#xA;fwxw3+rSs78IYlVUtoGk+P0kCKKnduI2AAUKss89+RvL/nfy1deXtdhMlncUaOVKCWCZa8JoWIPF&#xA;0r8iKg1BIxV83XvlH85PyyvHeGzv9eWW+SY+cNKluru6a0pxmiu9NaUrIVjCuteKhlALsvRVUb/n&#xA;IDznfTajp+nS6vNdmJV01YNEja5uZ9vhnijkQwgBeDNHI5+KqhaUxVE+VvyT89ef7621Lzfb3Xlf&#xA;QXt449Xt5b24n1PV3DI7G4WRuEMZlhDBSistBsx+MKvp6xsbOwsrexsoUt7O1jSG2t4wFSOONQqI&#xA;qjYBQKDFXiv5x/kFc65qUnmbyiVGoXEkU2ueXZpprez1Qw14MzwvGY5QCRWtDWtVNSyrzVfP35re&#xA;VLDVbG6sdb06OOXjpPlrULA6vam2qv7qPVJKt+7+JU/dsoQCvJsVV9Q1D81PzA1hLe20zV/NWjm3&#xA;Ux/XoJfLulw3ytH+8cRS1uY4mjZ1Xmr1am4AxV7P+TX5MxeQ7Rr7Vb5ta81XUEVrc6nIWZYbaFQI&#xA;7W25/EsScR4cqDYUACrOvLXxaBYSn+8uYVuZm/mluB60re3J3JoNh2xVEad+8hN027XJ5q3/ABVU&#xA;+kPb4N6eJOKorFUKv7rU2UfZuYudB2aIhSfmyyKP9jiqKxV2KuxV2KuxV2KuxV2KuxV2KuxV2Kux&#xA;V2KuxV2KuxV2KuxV2KuxV2KuxV2KuxV2KuxV2KpZ5c/d6TDZNtNpwFnMP8qFQA3ydOLj2IxVEWhF&#xA;u7Wj7fEzQHoGRiW4r/qV408BXFUXiqFh/fX8k3WOFfRjb/KJrLTxHwqPmCMVRWKuxV2KuxV2KuxV&#xA;2KuxV2KuxV2KuxV2KuxV2KuxV2KuxV2KuxV2KuxV2KuxV2KuxV2KuxVB3lhJJMLq0l+rXoUIZCvq&#xA;I6AkhJI6ryALEqQQw7GhYFVDS3epFDDeaM89d62s0Msft8U7Wz8h/qfTiqG/RWoXppJ6unWp+0Bd&#xA;TTXDKf2SORhj6b0MlR04nfFU5tbW3tbeO2to1igiULHGooABiqrirsVdirsVdirsVdirsVdirsVd&#xA;irsVdirsVdirsVdirsVdirsVdirsVdirsVdirsVdirsVf//Z</xmpGImg:image>
               </rdf:li>
            </rdf:Alt>
         </xmp:Thumbnails>
         <xmpMM:OriginalDocumentID>uuid:9E3E5C9A8C81DB118734DB58FDDE4BA7</xmpMM:OriginalDocumentID>
         <xmpMM:DocumentID>xmp.did:79edd954-66c0-4b32-aedb-d26160dc0800</xmpMM:DocumentID>
         <xmpMM:InstanceID>xmp.iid:79edd954-66c0-4b32-aedb-d26160dc0800</xmpMM:InstanceID>
         <xmpMM:RenditionClass>proof:pdf</xmpMM:RenditionClass>
         <xmpMM:DerivedFrom rdf:parseType="Resource">
            <stRef:instanceID>xmp.iid:4a9fa97e-7c7a-4d1b-be31-cd6f66655376</stRef:instanceID>
            <stRef:documentID>xmp.did:4a9fa97e-7c7a-4d1b-be31-cd6f66655376</stRef:documentID>
            <stRef:originalDocumentID>uuid:9E3E5C9A8C81DB118734DB58FDDE4BA7</stRef:originalDocumentID>
            <stRef:renditionClass>proof:pdf</stRef:renditionClass>
         </xmpMM:DerivedFrom>
         <xmpMM:History>
            <rdf:Seq>
               <rdf:li rdf:parseType="Resource">
                  <stEvt:action>saved</stEvt:action>
                  <stEvt:instanceID>xmp.iid:2b1c4ed1-fc7c-46a1-aff1-133f2f98846b</stEvt:instanceID>
                  <stEvt:when>2021-07-05T20:24:15+12:00</stEvt:when>
                  <stEvt:softwareAgent>Adobe Illustrator 24.0 (Macintosh)</stEvt:softwareAgent>
                  <stEvt:changed>/</stEvt:changed>
               </rdf:li>
               <rdf:li rdf:parseType="Resource">
                  <stEvt:action>saved</stEvt:action>
                  <stEvt:instanceID>xmp.iid:79edd954-66c0-4b32-aedb-d26160dc0800</stEvt:instanceID>
                  <stEvt:when>2021-07-06T13:00:32+12:00</stEvt:when>
                  <stEvt:softwareAgent>Adobe Illustrator 24.0 (Macintosh)</stEvt:softwareAgent>
                  <stEvt:changed>/</stEvt:changed>
               </rdf:li>
            </rdf:Seq>
         </xmpMM:History>
         <illustrator:StartupProfile>Basic RGB</illustrator:StartupProfile>
         <illustrator:CreatorSubTool>AIRobin</illustrator:CreatorSubTool>
         <pdf:Producer>Adobe PDF library 15.00</pdf:Producer>
         <xmpTPg:NPages>1</xmpTPg:NPages>
         <xmpTPg:HasVisibleTransparency>False</xmpTPg:HasVisibleTransparency>
         <xmpTPg:HasVisibleOverprint>False</xmpTPg:HasVisibleOverprint>
         <xmpTPg:MaxPageSize rdf:parseType="Resource">
            <stDim:w>1000.000000</stDim:w>
            <stDim:h>1000.000000</stDim:h>
            <stDim:unit>Pixels</stDim:unit>
         </xmpTPg:MaxPageSize>
         <xmpTPg:PlateNames>
            <rdf:Seq>
               <rdf:li>Cyan</rdf:li>
               <rdf:li>Magenta</rdf:li>
               <rdf:li>Yellow</rdf:li>
               <rdf:li>Black</rdf:li>
            </rdf:Seq>
         </xmpTPg:PlateNames>
         <xmpTPg:SwatchGroups>
            <rdf:Seq>
               <rdf:li rdf:parseType="Resource">
                  <xmpG:groupName>默认色板组</xmpG:groupName>
                  <xmpG:groupType>0</xmpG:groupType>
                  <xmpG:Colorants>
                     <rdf:Seq>
                        <rdf:li rdf:parseType="Resource">
                           <xmpG:swatchName>白色</xmpG:swatchName>
                           <xmpG:mode>RGB</xmpG:mode>
                           <xmpG:type>PROCESS</xmpG:type>
                           <xmpG:red>255</xmpG:red>
                           <xmpG:green>255</xmpG:green>
                           <xmpG:blue>255</xmpG:blue>
                        </rdf:li>
                        <rdf:li rdf:parseType="Resource">
                           <xmpG:swatchName>黑色</xmpG:swatchName>
                           <xmpG:mode>RGB</xmpG:mode>
                           <xmpG:type>PROCESS</xmpG:type>
                           <xmpG:red>0</xmpG:red>
                           <xmpG:green>0</xmpG:green>
                           <xmpG:blue>0</xmpG:blue>
                        </rdf:li>
                        <rdf:li rdf:parseType="Resource">
                           <xmpG:swatchName>RGB 红</xmpG:swatchName>
                           <xmpG:mode>RGB</xmpG:mode>
                           <xmpG:type>PROCESS</xmpG:type>
                           <xmpG:red>255</xmpG:red>
                           <xmpG:green>0</xmpG:green>
                           <xmpG:blue>0</xmpG:blue>
                        </rdf:li>
                        <rdf:li rdf:parseType="Resource">
                           <xmpG:swatchName>RGB 黄</xmpG:swatchName>
                           <xmpG:mode>RGB</xmpG:mode>
                           <xmpG:type>PROCESS</xmpG:type>
                           <xmpG:red>255</xmpG:red>
                           <xmpG:green>255</xmpG:green>
                           <xmpG:blue>0</xmpG:blue>
                        </rdf:li>
                        <rdf:li rdf:parseType="Resource">
                           <xmpG:swatchName>RGB 绿</xmpG:swatchName>
                           <xmpG:mode>RGB</xmpG:mode>
                           <xmpG:type>PROCESS</xmpG:type>
                           <xmpG:red>0</xmpG:red>
                           <xmpG:green>255</xmpG:green>
                           <xmpG:blue>0</xmpG:blue>
                        </rdf:li>
                        <rdf:li rdf:parseType="Resource">
                           <xmpG:swatchName>RGB 青</xmpG:swatchName>
                           <xmpG:mode>RGB</xmpG:mode>
                           <xmpG:type>PROCESS</xmpG:type>
                           <xmpG:red>0</xmpG:red>
                           <xmpG:green>255</xmpG:green>
                           <xmpG:blue>255</xmpG:blue>
                        </rdf:li>
                        <rdf:li rdf:parseType="Resource">
                           <xmpG:swatchName>RGB 蓝</xmpG:swatchName>
                           <xmpG:mode>RGB</xmpG:mode>
                           <xmpG:type>PROCESS</xmpG:type>
                           <xmpG:red>0</xmpG:red>
                           <xmpG:green>0</xmpG:green>
                           <xmpG:blue>255</xmpG:blue>
                        </rdf:li>
                        <rdf:li rdf:parseType="Resource">
                           <xmpG:swatchName>RGB 洋红</xmpG:swatchName>
                           <xmpG:mode>RGB</xmpG:mode>
                           <xmpG:type>PROCESS</xmpG:type>
                           <xmpG:red>255</xmpG:red>
                           <xmpG:green>0</xmpG:green>
                           <xmpG:blue>255</xmpG:blue>
                        </rdf:li>
                        <rdf:li rdf:parseType="Resource">
                           <xmpG:swatchName>R=193 G=39 B=45</xmpG:swatchName>
                           <xmpG:mode>RGB</xmpG:mode>
                           <xmpG:type>PROCESS</xmpG:type>
                           <xmpG:red>193</xmpG:red>
                           <xmpG:green>39</xmpG:green>
                           <xmpG:blue>45</xmpG:blue>
                        </rdf:li>
                        <rdf:li rdf:parseType="Resource">
                           <xmpG:swatchName>R=237 G=28 B=36</xmpG:swatchName>
                           <xmpG:mode>RGB</xmpG:mode>
                           <xmpG:type>PROCESS</xmpG:type>
                           <xmpG:red>237</xmpG:red>
                           <xmpG:green>28</xmpG:green>
                           <xmpG:blue>36</xmpG:blue>
                        </rdf:li>
                        <rdf:li rdf:parseType="Resource">
                           <xmpG:swatchName>R=241 G=90 B=36</xmpG:swatchName>
                           <xmpG:mode>RGB</xmpG:mode>
                           <xmpG:type>PROCESS</xmpG:type>
                           <xmpG:red>241</xmpG:red>
                           <xmpG:green>90</xmpG:green>
                           <xmpG:blue>36</xmpG:blue>
                        </rdf:li>
                        <rdf:li rdf:parseType="Resource">
                           <xmpG:swatchName>R=247 G=147 B=30</xmpG:swatchName>
                           <xmpG:mode>RGB</xmpG:mode>
                           <xmpG:type>PROCESS</xmpG:type>
                           <xmpG:red>247</xmpG:red>
                           <xmpG:green>147</xmpG:green>
                           <xmpG:blue>30</xmpG:blue>
                        </rdf:li>
                        <rdf:li rdf:parseType="Resource">
                           <xmpG:swatchName>R=251 G=176 B=59</xmpG:swatchName>
                           <xmpG:mode>RGB</xmpG:mode>
                           <xmpG:type>PROCESS</xmpG:type>
                           <xmpG:red>251</xmpG:red>
                           <xmpG:green>176</xmpG:green>
                           <xmpG:blue>59</xmpG:blue>
                        </rdf:li>
                        <rdf:li rdf:parseType="Resource">
                           <xmpG:swatchName>R=252 G=238 B=33</xmpG:swatchName>
                           <xmpG:mode>RGB</xmpG:mode>
                           <xmpG:type>PROCESS</xmpG:type>
                           <xmpG:red>252</xmpG:red>
                           <xmpG:green>238</xmpG:green>
                           <xmpG:blue>33</xmpG:blue>
                        </rdf:li>
                        <rdf:li rdf:parseType="Resource">
                           <xmpG:swatchName>R=217 G=224 B=33</xmpG:swatchName>
                           <xmpG:mode>RGB</xmpG:mode>
                           <xmpG:type>PROCESS</xmpG:type>
                           <xmpG:red>217</xmpG:red>
                           <xmpG:green>224</xmpG:green>
                           <xmpG:blue>33</xmpG:blue>
                        </rdf:li>
                        <rdf:li rdf:parseType="Resource">
                           <xmpG:swatchName>R=140 G=198 B=63</xmpG:swatchName>
                           <xmpG:mode>RGB</xmpG:mode>
                           <xmpG:type>PROCESS</xmpG:type>
                           <xmpG:red>140</xmpG:red>
                           <xmpG:green>198</xmpG:green>
                           <xmpG:blue>63</xmpG:blue>
                        </rdf:li>
                        <rdf:li rdf:parseType="Resource">
                           <xmpG:swatchName>R=57 G=181 B=74</xmpG:swatchName>
                           <xmpG:mode>RGB</xmpG:mode>
                           <xmpG:type>PROCESS</xmpG:type>
                           <xmpG:red>57</xmpG:red>
                           <xmpG:green>181</xmpG:green>
                           <xmpG:blue>74</xmpG:blue>
                        </rdf:li>
                        <rdf:li rdf:parseType="Resource">
                           <xmpG:swatchName>R=0 G=146 B=69</xmpG:swatchName>
                           <xmpG:mode>RGB</xmpG:mode>
                           <xmpG:type>PROCESS</xmpG:type>
                           <xmpG:red>0</xmpG:red>
                           <xmpG:green>146</xmpG:green>
                           <xmpG:blue>69</xmpG:blue>
                        </rdf:li>
                        <rdf:li rdf:parseType="Resource">
                           <xmpG:swatchName>R=0 G=104 B=55</xmpG:swatchName>
                           <xmpG:mode>RGB</xmpG:mode>
                           <xmpG:type>PROCESS</xmpG:type>
                           <xmpG:red>0</xmpG:red>
                           <xmpG:green>104</xmpG:green>
                           <xmpG:blue>55</xmpG:blue>
                        </rdf:li>
                        <rdf:li rdf:parseType="Resource">
                           <xmpG:swatchName>R=34 G=181 B=115</xmpG:swatchName>
                           <xmpG:mode>RGB</xmpG:mode>
                           <xmpG:type>PROCESS</xmpG:type>
                           <xmpG:red>34</xmpG:red>
                           <xmpG:green>181</xmpG:green>
                           <xmpG:blue>115</xmpG:blue>
                        </rdf:li>
                        <rdf:li rdf:parseType="Resource">
                           <xmpG:swatchName>R=0 G=169 B=157</xmpG:swatchName>
                           <xmpG:mode>RGB</xmpG:mode>
                           <xmpG:type>PROCESS</xmpG:type>
                           <xmpG:red>0</xmpG:red>
                           <xmpG:green>169</xmpG:green>
                           <xmpG:blue>157</xmpG:blue>
                        </rdf:li>
                        <rdf:li rdf:parseType="Resource">
                           <xmpG:swatchName>R=41 G=171 B=226</xmpG:swatchName>
                           <xmpG:mode>RGB</xmpG:mode>
                           <xmpG:type>PROCESS</xmpG:type>
                           <xmpG:red>41</xmpG:red>
                           <xmpG:green>171</xmpG:green>
                           <xmpG:blue>226</xmpG:blue>
                        </rdf:li>
                        <rdf:li rdf:parseType="Resource">
                           <xmpG:swatchName>R=0 G=113 B=188</xmpG:swatchName>
                           <xmpG:mode>RGB</xmpG:mode>
                           <xmpG:type>PROCESS</xmpG:type>
                           <xmpG:red>0</xmpG:red>
                           <xmpG:green>113</xmpG:green>
                           <xmpG:blue>188</xmpG:blue>
                        </rdf:li>
                        <rdf:li rdf:parseType="Resource">
                           <xmpG:swatchName>R=46 G=49 B=146</xmpG:swatchName>
                           <xmpG:mode>RGB</xmpG:mode>
                           <xmpG:type>PROCESS</xmpG:type>
                           <xmpG:red>46</xmpG:red>
                           <xmpG:green>49</xmpG:green>
                           <xmpG:blue>146</xmpG:blue>
                        </rdf:li>
                        <rdf:li rdf:parseType="Resource">
                           <xmpG:swatchName>R=27 G=20 B=100</xmpG:swatchName>
                           <xmpG:mode>RGB</xmpG:mode>
                           <xmpG:type>PROCESS</xmpG:type>
                           <xmpG:red>27</xmpG:red>
                           <xmpG:green>20</xmpG:green>
                           <xmpG:blue>100</xmpG:blue>
                        </rdf:li>
                        <rdf:li rdf:parseType="Resource">
                           <xmpG:swatchName>R=102 G=45 B=145</xmpG:swatchName>
                           <xmpG:mode>RGB</xmpG:mode>
                           <xmpG:type>PROCESS</xmpG:type>
                           <xmpG:red>102</xmpG:red>
                           <xmpG:green>45</xmpG:green>
                           <xmpG:blue>145</xmpG:blue>
                        </rdf:li>
                        <rdf:li rdf:parseType="Resource">
                           <xmpG:swatchName>R=147 G=39 B=143</xmpG:swatchName>
                           <xmpG:mode>RGB</xmpG:mode>
                           <xmpG:type>PROCESS</xmpG:type>
                           <xmpG:red>147</xmpG:red>
                           <xmpG:green>39</xmpG:green>
                           <xmpG:blue>143</xmpG:blue>
                        </rdf:li>
                        <rdf:li rdf:parseType="Resource">
                           <xmpG:swatchName>R=158 G=0 B=93</xmpG:swatchName>
                           <xmpG:mode>RGB</xmpG:mode>
                           <xmpG:type>PROCESS</xmpG:type>
                           <xmpG:red>158</xmpG:red>
                           <xmpG:green>0</xmpG:green>
                           <xmpG:blue>93</xmpG:blue>
                        </rdf:li>
                        <rdf:li rdf:parseType="Resource">
                           <xmpG:swatchName>R=212 G=20 B=90</xmpG:swatchName>
                           <xmpG:mode>RGB</xmpG:mode>
                           <xmpG:type>PROCESS</xmpG:type>
                           <xmpG:red>212</xmpG:red>
                           <xmpG:green>20</xmpG:green>
                           <xmpG:blue>90</xmpG:blue>
                        </rdf:li>
                        <rdf:li rdf:parseType="Resource">
                           <xmpG:swatchName>R=237 G=30 B=121</xmpG:swatchName>
                           <xmpG:mode>RGB</xmpG:mode>
                           <xmpG:type>PROCESS</xmpG:type>
                           <xmpG:red>237</xmpG:red>
                           <xmpG:green>30</xmpG:green>
                           <xmpG:blue>121</xmpG:blue>
                        </rdf:li>
                        <rdf:li rdf:parseType="Resource">
                           <xmpG:swatchName>R=199 G=178 B=153</xmpG:swatchName>
                           <xmpG:mode>RGB</xmpG:mode>
                           <xmpG:type>PROCESS</xmpG:type>
                           <xmpG:red>199</xmpG:red>
                           <xmpG:green>178</xmpG:green>
                           <xmpG:blue>153</xmpG:blue>
                        </rdf:li>
                        <rdf:li rdf:parseType="Resource">
                           <xmpG:swatchName>R=153 G=134 B=117</xmpG:swatchName>
                           <xmpG:mode>RGB</xmpG:mode>
                           <xmpG:type>PROCESS</xmpG:type>
                           <xmpG:red>153</xmpG:red>
                           <xmpG:green>134</xmpG:green>
                           <xmpG:blue>117</xmpG:blue>
                        </rdf:li>
                        <rdf:li rdf:parseType="Resource">
                           <xmpG:swatchName>R=115 G=99 B=87</xmpG:swatchName>
                           <xmpG:mode>RGB</xmpG:mode>
                           <xmpG:type>PROCESS</xmpG:type>
                           <xmpG:red>115</xmpG:red>
                           <xmpG:green>99</xmpG:green>
                           <xmpG:blue>87</xmpG:blue>
                        </rdf:li>
                        <rdf:li rdf:parseType="Resource">
                           <xmpG:swatchName>R=83 G=71 B=65</xmpG:swatchName>
                           <xmpG:mode>RGB</xmpG:mode>
                           <xmpG:type>PROCESS</xmpG:type>
                           <xmpG:red>83</xmpG:red>
                           <xmpG:green>71</xmpG:green>
                           <xmpG:blue>65</xmpG:blue>
                        </rdf:li>
                        <rdf:li rdf:parseType="Resource">
                           <xmpG:swatchName>R=198 G=156 B=109</xmpG:swatchName>
                           <xmpG:mode>RGB</xmpG:mode>
                           <xmpG:type>PROCESS</xmpG:type>
                           <xmpG:red>198</xmpG:red>
                           <xmpG:green>156</xmpG:green>
                           <xmpG:blue>109</xmpG:blue>
                        </rdf:li>
                        <rdf:li rdf:parseType="Resource">
                           <xmpG:swatchName>R=166 G=124 B=82</xmpG:swatchName>
                           <xmpG:mode>RGB</xmpG:mode>
                           <xmpG:type>PROCESS</xmpG:type>
                           <xmpG:red>166</xmpG:red>
                           <xmpG:green>124</xmpG:green>
                           <xmpG:blue>82</xmpG:blue>
                        </rdf:li>
                        <rdf:li rdf:parseType="Resource">
                           <xmpG:swatchName>R=140 G=98 B=57</xmpG:swatchName>
                           <xmpG:mode>RGB</xmpG:mode>
                           <xmpG:type>PROCESS</xmpG:type>
                           <xmpG:red>140</xmpG:red>
                           <xmpG:green>98</xmpG:green>
                           <xmpG:blue>57</xmpG:blue>
                        </rdf:li>
                        <rdf:li rdf:parseType="Resource">
                           <xmpG:swatchName>R=117 G=76 B=36</xmpG:swatchName>
                           <xmpG:mode>RGB</xmpG:mode>
                           <xmpG:type>PROCESS</xmpG:type>
                           <xmpG:red>117</xmpG:red>
                           <xmpG:green>76</xmpG:green>
                           <xmpG:blue>36</xmpG:blue>
                        </rdf:li>
                        <rdf:li rdf:parseType="Resource">
                           <xmpG:swatchName>R=96 G=56 B=19</xmpG:swatchName>
                           <xmpG:mode>RGB</xmpG:mode>
                           <xmpG:type>PROCESS</xmpG:type>
                           <xmpG:red>96</xmpG:red>
                           <xmpG:green>56</xmpG:green>
                           <xmpG:blue>19</xmpG:blue>
                        </rdf:li>
                        <rdf:li rdf:parseType="Resource">
                           <xmpG:swatchName>R=66 G=33 B=11</xmpG:swatchName>
                           <xmpG:mode>RGB</xmpG:mode>
                           <xmpG:type>PROCESS</xmpG:type>
                           <xmpG:red>66</xmpG:red>
                           <xmpG:green>33</xmpG:green>
                           <xmpG:blue>11</xmpG:blue>
                        </rdf:li>
                     </rdf:Seq>
                  </xmpG:Colorants>
               </rdf:li>
               <rdf:li rdf:parseType="Resource">
                  <xmpG:groupName>冷光</xmpG:groupName>
                  <xmpG:groupType>1</xmpG:groupType>
                  <xmpG:Colorants>
                     <rdf:Seq>
                        <rdf:li rdf:parseType="Resource">
                           <xmpG:swatchName>C=56 M=0 Y=20 K=0</xmpG:swatchName>
                           <xmpG:mode>RGB</xmpG:mode>
                           <xmpG:type>PROCESS</xmpG:type>
                           <xmpG:red>101</xmpG:red>
                           <xmpG:green>200</xmpG:green>
                           <xmpG:blue>208</xmpG:blue>
                        </rdf:li>
                        <rdf:li rdf:parseType="Resource">
                           <xmpG:swatchName>C=51 M=43 Y=0 K=0</xmpG:swatchName>
                           <xmpG:mode>RGB</xmpG:mode>
                           <xmpG:type>PROCESS</xmpG:type>
                           <xmpG:red>131</xmpG:red>
                           <xmpG:green>139</xmpG:green>
                           <xmpG:blue>197</xmpG:blue>
                        </rdf:li>
                        <rdf:li rdf:parseType="Resource">
                           <xmpG:swatchName>C=26 M=41 Y=0 K=0</xmpG:swatchName>
                           <xmpG:mode>RGB</xmpG:mode>
                           <xmpG:type>PROCESS</xmpG:type>
                           <xmpG:red>186</xmpG:red>
                           <xmpG:green>155</xmpG:green>
                           <xmpG:blue>201</xmpG:blue>
                        </rdf:li>
                     </rdf:Seq>
                  </xmpG:Colorants>
               </rdf:li>
               <rdf:li rdf:parseType="Resource">
                  <xmpG:groupName>灰色</xmpG:groupName>
                  <xmpG:groupType>1</xmpG:groupType>
                  <xmpG:Colorants>
                     <rdf:Seq>
                        <rdf:li rdf:parseType="Resource">
                           <xmpG:swatchName>R=0 G=0 B=0</xmpG:swatchName>
                           <xmpG:mode>RGB</xmpG:mode>
                           <xmpG:type>PROCESS</xmpG:type>
                           <xmpG:red>0</xmpG:red>
                           <xmpG:green>0</xmpG:green>
                           <xmpG:blue>0</xmpG:blue>
                        </rdf:li>
                        <rdf:li rdf:parseType="Resource">
                           <xmpG:swatchName>R=26 G=26 B=26</xmpG:swatchName>
                           <xmpG:mode>RGB</xmpG:mode>
                           <xmpG:type>PROCESS</xmpG:type>
                           <xmpG:red>26</xmpG:red>
                           <xmpG:green>26</xmpG:green>
                           <xmpG:blue>26</xmpG:blue>
                        </rdf:li>
                        <rdf:li rdf:parseType="Resource">
                           <xmpG:swatchName>R=51 G=51 B=51</xmpG:swatchName>
                           <xmpG:mode>RGB</xmpG:mode>
                           <xmpG:type>PROCESS</xmpG:type>
                           <xmpG:red>51</xmpG:red>
                           <xmpG:green>51</xmpG:green>
                           <xmpG:blue>51</xmpG:blue>
                        </rdf:li>
                        <rdf:li rdf:parseType="Resource">
                           <xmpG:swatchName>R=77 G=77 B=77</xmpG:swatchName>
                           <xmpG:mode>RGB</xmpG:mode>
                           <xmpG:type>PROCESS</xmpG:type>
                           <xmpG:red>77</xmpG:red>
                           <xmpG:green>77</xmpG:green>
                           <xmpG:blue>77</xmpG:blue>
                        </rdf:li>
                        <rdf:li rdf:parseType="Resource">
                           <xmpG:swatchName>R=102 G=102 B=102</xmpG:swatchName>
                           <xmpG:mode>RGB</xmpG:mode>
                           <xmpG:type>PROCESS</xmpG:type>
                           <xmpG:red>102</xmpG:red>
                           <xmpG:green>102</xmpG:green>
                           <xmpG:blue>102</xmpG:blue>
                        </rdf:li>
                        <rdf:li rdf:parseType="Resource">
                           <xmpG:swatchName>R=128 G=128 B=128</xmpG:swatchName>
                           <xmpG:mode>RGB</xmpG:mode>
                           <xmpG:type>PROCESS</xmpG:type>
                           <xmpG:red>128</xmpG:red>
                           <xmpG:green>128</xmpG:green>
                           <xmpG:blue>128</xmpG:blue>
                        </rdf:li>
                        <rdf:li rdf:parseType="Resource">
                           <xmpG:swatchName>R=153 G=153 B=153</xmpG:swatchName>
                           <xmpG:mode>RGB</xmpG:mode>
                           <xmpG:type>PROCESS</xmpG:type>
                           <xmpG:red>153</xmpG:red>
                           <xmpG:green>153</xmpG:green>
                           <xmpG:blue>153</xmpG:blue>
                        </rdf:li>
                        <rdf:li rdf:parseType="Resource">
                           <xmpG:swatchName>R=179 G=179 B=179</xmpG:swatchName>
                           <xmpG:mode>RGB</xmpG:mode>
                           <xmpG:type>PROCESS</xmpG:type>
                           <xmpG:red>179</xmpG:red>
                           <xmpG:green>179</xmpG:green>
                           <xmpG:blue>179</xmpG:blue>
                        </rdf:li>
                        <rdf:li rdf:parseType="Resource">
                           <xmpG:swatchName>R=204 G=204 B=204</xmpG:swatchName>
                           <xmpG:mode>RGB</xmpG:mode>
                           <xmpG:type>PROCESS</xmpG:type>
                           <xmpG:red>204</xmpG:red>
                           <xmpG:green>204</xmpG:green>
                           <xmpG:blue>204</xmpG:blue>
                        </rdf:li>
                        <rdf:li rdf:parseType="Resource">
                           <xmpG:swatchName>R=230 G=230 B=230</xmpG:swatchName>
                           <xmpG:mode>RGB</xmpG:mode>
                           <xmpG:type>PROCESS</xmpG:type>
                           <xmpG:red>230</xmpG:red>
                           <xmpG:green>230</xmpG:green>
                           <xmpG:blue>230</xmpG:blue>
                        </rdf:li>
                        <rdf:li rdf:parseType="Resource">
                           <xmpG:swatchName>R=242 G=242 B=242</xmpG:swatchName>
                           <xmpG:mode>RGB</xmpG:mode>
                           <xmpG:type>PROCESS</xmpG:type>
                           <xmpG:red>242</xmpG:red>
                           <xmpG:green>242</xmpG:green>
                           <xmpG:blue>242</xmpG:blue>
                        </rdf:li>
                     </rdf:Seq>
                  </xmpG:Colorants>
               </rdf:li>
            </rdf:Seq>
         </xmpTPg:SwatchGroups>
      </rdf:Description>
   </rdf:RDF>
</x:xmpmeta>
                                                                                                    
                                                                                                    
                                                                                                    
                                                                                                    
                                                                                                    
                                                                                                    
                                                                                                    
                                                                                                    
                                                                                                    
                                                                                                    
                                                                                                    
                                                                                                    
                                                                                                    
                                                                                                    
                                                                                                    
                                                                                                    
                                                                                                    
                                                                                                    
                                                                                                    
                                                                                                    
                           
<?xpacket end="w"?>
	</metadata>
<g id="图层_1" class="st0">
</g>
<g id="图层_2">
</g>
<g id="图层_5">
</g>
<g id="图层_8">
</g>
<g id="图层_4">
</g>
<g id="图层_6">
</g>
<g id="图层_3">
</g>
<g id="图层_7">
</g>
<g id="图层_9">
</g>
<g id="图层_10">
	<g>
		<polygon points="625,595 625,505 605,505 605,580 605,592.1 596.5,583.5 590,577.1 583.5,583.5 575,592.1 575,580 575,505 
			517.5,505 517.5,605 625,605 		"/>
		<rect x="375" y="505" width="107.5" height="100"/>
		<path d="M600,620v-5h-82.5v80H600v-5c-19.3,0-35-15.7-35-35S580.7,620,600,620z"/>
		<path d="M400,620c19.3,0,35,15.7,35,35s-15.7,35-35,35v5h82.5v-80H400V620z"/>
		<rect x="350" y="705" width="132.5" height="50"/>
		<rect x="517.5" y="705" width="132.5" height="50"/>
		<path d="M365,505H225c0,15.9,6.4,30.8,17.6,43.8h0h64.9c0,0.8,0,1.6-0.1,2.3c0,0.2,0,0.3,0,0.5c-0.1,0.8-0.2,1.5-0.3,2.2
			c0,0.1,0,0.2-0.1,0.3c-0.1,0.7-0.2,1.3-0.4,2c0,0.1-0.1,0.3-0.1,0.4c-0.2,0.7-0.4,1.4-0.6,2.1c0,0.1-0.1,0.3-0.1,0.4
			c-0.2,0.6-0.4,1.3-0.7,1.9c0,0.1,0,0.1-0.1,0.2c0,0,0,0.1,0,0.1c-0.3,0.7-0.6,1.3-0.9,2c-0.1,0.1-0.1,0.3-0.2,0.4
			c-0.7,1.3-1.5,2.6-2.3,3.8c-0.1,0.1-0.2,0.2-0.2,0.3c-0.4,0.6-0.9,1.2-1.4,1.8c0,0,0,0,0,0c0,0,0,0.1-0.1,0.1
			c-0.5,0.5-0.9,1.1-1.4,1.6c-0.1,0.1-0.2,0.2-0.2,0.2c-0.5,0.5-1.1,1-1.6,1.5c-0.1,0.1-0.1,0.1-0.2,0.2c-0.5,0.5-1.1,0.9-1.6,1.4
			c-0.1,0-0.1,0.1-0.1,0.1c-0.6,0.5-1.2,0.9-1.8,1.3c-0.1,0.1-0.2,0.1-0.3,0.2c-1.3,0.8-2.6,1.6-4,2.2c-0.1,0-0.2,0.1-0.3,0.1
			c-0.7,0.3-1.4,0.6-2.2,0.9c0,0,0,0,0,0c22.5,9.9,49.7,15.7,79,15.7V505z M281.1,536.5c-5.3,0-9.6-4.1-10-9.3l18.1-6.6
			c1.2,1.6,1.9,3.6,1.9,5.8C291.1,532,286.6,536.5,281.1,536.5z M327,562.5c-0.4,4.2-0.9,8.3-2,12.5c-1-4.2-1.6-8.3-2-12.5
			c-0.4-4.2-0.5-8.3-0.5-12.5c0-4.2,0.2-8.3,0.5-12.5c0.4-4.2,0.9-8.3,2-12.5c1,4.2,1.6,8.3,2,12.5c0.4,4.2,0.5,8.3,0.5,12.5
			C327.5,554.2,327.3,558.3,327,562.5z M337,562.5c-0.4,4.2-0.9,8.3-2,12.5c-1-4.2-1.6-8.3-2-12.5c-0.4-4.2-0.5-8.3-0.5-12.5
			c0-4.2,0.2-8.3,0.5-12.5c0.4-4.2,0.9-8.3,2-12.5c1,4.2,1.6,8.3,2,12.5c0.4,4.2,0.5,8.3,0.5,12.5
			C337.5,554.2,337.3,558.3,337,562.5z M347,562.5c-0.4,4.2-0.9,8.3-2,12.5c-1-4.2-1.6-8.3-2-12.5c-0.4-4.2-0.5-8.3-0.5-12.5
			c0-4.2,0.2-8.3,0.5-12.5c0.4-4.2,0.9-8.3,2-12.5c1,4.2,1.6,8.3,2,12.5c0.4,4.2,0.5,8.3,0.5,12.5
			C347.5,554.2,347.3,558.3,347,562.5z"/>
		<rect x="452.5" y="340" width="30" height="130"/>
		<rect x="412.5" y="350" width="30" height="120"/>
		<polygon points="402.5,470 402.5,390 372.5,390 372.5,408.4 372.5,470 		"/>
		<rect x="412.5" y="325" width="30" height="20"/>
		<rect x="412.5" y="475" width="30" height="20"/>
		<rect x="452.5" y="475" width="30" height="20"/>
		<rect x="372.5" y="475" width="30" height="20"/>
		<rect x="452.5" y="315" width="30" height="20"/>
		<rect x="372.5" y="365" width="30" height="20"/>
		<rect x="309.5" y="429.2" transform="matrix(0.5 -0.866 0.866 0.5 -217.4323 511.7948)" width="50" height="30"/>
		<rect x="304.5" y="463.8" transform="matrix(0.5 -0.866 0.866 0.5 -257.4324 511.7949)" width="20" height="30"/>
		<rect x="344.5" y="394.6" transform="matrix(0.5 -0.866 0.866 0.5 -177.4322 511.7948)" width="20" height="30"/>
		<polygon points="635,495 672.5,495 672.5,465 605,465 605,495 625,495 		"/>
		<rect x="542.5" y="465" width="32.5" height="30"/>
		<rect x="677.5" y="465" width="20" height="30"/>
		<rect x="517.5" y="465" width="20" height="30"/>
		<rect x="542.5" y="425" width="32.5" height="30"/>
		<rect x="605" y="425" width="37.5" height="30"/>
		<rect x="647.5" y="425" width="20" height="30"/>
		<rect x="517.5" y="425" width="20" height="30"/>
		<polygon points="517.5,415 575,415 575,410 522.5,410 522.5,390 617.5,390 617.5,385 517.5,385 		"/>
		<rect x="605" y="410" width="12.5" height="5"/>
		<polygon points="600,395 580,395 575,395 527.5,395 527.5,405 575,405 580,405 580,407.9 580,410 580,415 580,420 580,425 
			580,455 580,465 580,495 580,505 580,580 590,570 600,580 600,505 600,495 600,465 600,455 600,425 600,418.6 600,415 600,410 
			600,406.5 600,405 605,405 612.5,405 612.5,395 605,395 		"/>
		<path d="M762.6,568.7c-5.3-7.9-6.4-18.8-3-29.7c-10.3,2.9-22.5,3-34.4,3.1c-19.7,0.1-40.1,0.2-53.4,11.4c-4,3.3-7.2,7.7-9.8,13
			c29.4-15.5,45.2-14.1,54.3-8.6c9.6,5.8,11.3,15.8,24.3,22.8c15,8.1,32.2,5.2,44.4,1.5C780.4,581.2,769.1,578.4,762.6,568.7z"/>
		<path d="M665.3,545.8c6.5-5.5,14.1-8.8,22.2-10.7c2.5-0.6,5-1.1,7.6-1.5c5.2-0.8,10.4-1.2,15.7-1.4c2-0.1,4-0.1,5.9-0.2
			c8.9-0.1,17.7,0,25.6-0.5c0.8-0.1,1.5-0.1,2.3-0.2c0.4,0,0.8-0.1,1.2-0.1c0.6-0.1,1.2-0.1,1.8-0.2c0.5-0.1,1.1-0.1,1.6-0.2
			c0.4-0.1,0.8-0.1,1.2-0.2c6.4-1,12-2.8,16.3-6.2c1.9-1.5,3.6-3.4,5-5.6c0.2-0.3,0.4-0.7,0.6-1c0.1-0.1,0.1-0.3,0.2-0.4
			c0.3-0.5,0.5-1,0.7-1.6c0.2-0.5,0.4-1,0.5-1.5c1.2-3.4,1.4-6.6,1.4-9c0-0.2,0-0.4,0-0.6h-50h-90v90h10c0.4-5.4,1-10.2,1.9-14.5
			c0.3-1.5,0.6-2.9,0.9-4.2c0.2-0.7,0.4-1.4,0.5-2.1c1.1-3.9,2.3-7.3,3.7-10.4C655.9,555.1,660.8,549.5,665.3,545.8z"/>
		<path d="M765.8,422.2c-28.2,2.6-54,33.2-52.4,72.8H725h50c-10-9.5-14.6-22.9-11-33.7c5.3-15.7,27.9-26.1,49.9-16.4
			C811.6,442.1,791.9,419.8,765.8,422.2z"/>
		<polygon points="248.8,559.7 248.8,559.7 248.8,559.7 		"/>
		<path d="M248.8,559.7C248.8,559.7,248.8,559.7,248.8,559.7C248.8,559.7,248.8,559.7,248.8,559.7
			C248.8,559.7,248.8,559.7,248.8,559.7z"/>
		<path d="M277.6,577.8c0.1,0,0.2,0.1,0.3,0.1c0,0,0,0,0,0C277.8,577.8,277.7,577.8,277.6,577.8
			C277.6,577.7,277.6,577.7,277.6,577.8z"/>
		<path d="M262.2,569.4c0,0,0.1,0.1,0.1,0.1C262.2,569.4,262.2,569.4,262.2,569.4C262.2,569.4,262.2,569.4,262.2,569.4z"/>
		<path d="M262.3,569.4C262.3,569.4,262.3,569.5,262.3,569.4C262.3,569.5,262.3,569.5,262.3,569.4
			C262.3,569.5,262.3,569.4,262.3,569.4z"/>
		<path d="M274.4,576.2C274.4,576.2,274.5,576.2,274.4,576.2C274.5,576.2,274.4,576.2,274.4,576.2
			C274.4,576.2,274.4,576.2,274.4,576.2z"/>
		<path d="M274.6,576.3C274.6,576.3,274.6,576.3,274.6,576.3C274.5,576.3,274.5,576.3,274.6,576.3
			C274.5,576.3,274.5,576.3,274.6,576.3z"/>
		<polygon points="295.7,554 289.4,571.6 301.3,554.1 		"/>
		<polygon points="276.8,566.7 283.7,571.4 280.1,558.5 		"/>
		<polygon points="270.4,553.9 273.7,564.6 274.2,565 278.7,554 		"/>
		<polygon points="257.7,553.9 264.3,558.3 266.9,553.9 		"/>
		<polygon points="266.8,560 269.7,562 268.3,557.4 		"/>
		<polygon points="286.6,570.6 292.5,554 282,554 		"/>
		<path d="M375,615c-0.2,1.2-0.4,2.9,0,5c0.5,2.9,2,5.3,3.7,7.2c2.9,3.4,6.6,5.4,8,6.3c6.2,4,12.7,14.9,13.4,46.5
			c13.8,0,25-11.2,25-25s-11.2-25-25-25c-0.7-0.3-7.4-2.7-9.6-8.7c-0.2-0.4-0.3-0.9-0.4-1.3c-0.4-1.9-0.3-3.6,0-5H375z"/>
		<path d="M507.5,280h10H590v-60H460c0,27.6-22.4,50-50,50v10h72.5h10H507.5z"/>
		<polygon points="492.5,280 492.5,505 492.5,605 492.5,615 492.5,695 492.5,705 492.5,755 492.5,780 507.5,780 507.5,755 
			507.5,705 507.5,695 507.5,615 507.5,605 507.5,505 507.5,280 		"/>
		<path d="M975,494.9c0-1.6,0-3.3-0.1-4.9c0,0,0,0,0,0c0,0,0,0,0,0c-0.1-3.4-0.2-6.7-0.3-10.1c0,0,0,0,0,0c-0.1-2.4-0.2-4.8-0.4-7.2
			c0-0.8-0.1-1.6-0.1-2.3c-0.1-1.6-0.2-3.2-0.3-4.9c-0.1-0.9-0.1-1.9-0.2-2.8c-0.1-1.5-0.2-2.9-0.4-4.4c-0.1-1-0.2-2-0.3-3
			c-0.1-1.4-0.3-2.8-0.4-4.2c0-0.4-0.1-0.8-0.1-1.2c-0.1-0.8-0.2-1.6-0.3-2.4c-0.1-0.9-0.2-1.8-0.3-2.7c-0.1-1.3-0.3-2.6-0.5-3.9
			c-0.1-0.9-0.2-1.7-0.3-2.6c-0.2-1.4-0.4-2.9-0.6-4.3c-0.1-0.7-0.2-1.4-0.3-2.2c-0.3-2.1-0.6-4.3-1-6.4c0,0,0,0,0-0.1
			c-0.5-3.2-1-6.3-1.6-9.5c-0.2-1-0.4-2-0.6-3c-0.4-2.2-0.8-4.3-1.2-6.5c-0.2-1.2-0.5-2.4-0.7-3.6c-0.4-2-0.8-3.9-1.3-5.9
			c-0.3-1.2-0.5-2.5-0.8-3.7c-0.4-1.9-0.9-3.9-1.4-5.8c-0.2-0.7-0.3-1.5-0.5-2.2c-0.1-0.6-0.3-1.2-0.5-1.8c-0.3-1-0.5-2.1-0.8-3.1
			c-0.4-1.7-0.9-3.3-1.3-5c-0.3-1-0.6-2-0.8-3.1c-0.5-1.8-1-3.5-1.5-5.3c-0.3-0.9-0.5-1.8-0.8-2.6c-0.8-2.6-1.6-5.2-2.4-7.9
			c0-0.1-0.1-0.2-0.1-0.3c-1-3-1.9-6-3-9c0-0.1-0.1-0.3-0.1-0.4c-0.3-0.9-0.7-1.9-1-2.8c-0.7-2-1.4-3.9-2.1-5.9
			c-0.4-1.1-0.8-2.3-1.3-3.4c-0.7-1.9-1.4-3.8-2.1-5.7c-0.1-0.3-0.2-0.7-0.4-1c-0.8-2.1-1.6-4.2-2.5-6.3c-0.1-0.1-0.1-0.3-0.2-0.4
			c-0.9-2.1-1.7-4.3-2.6-6.4c-0.8-1.9-1.6-3.9-2.5-5.8c-0.2-0.3-0.3-0.7-0.5-1c-0.7-1.6-1.4-3.3-2.2-4.9c-0.1-0.2-0.2-0.5-0.3-0.7
			c-0.8-1.8-1.6-3.5-2.5-5.3c0-0.1-0.1-0.2-0.1-0.3c-0.9-1.8-1.7-3.6-2.6-5.4c0-0.1-0.1-0.2-0.1-0.3c-0.1-0.2-0.2-0.5-0.4-0.7
			c-0.9-1.9-1.9-3.8-2.8-5.7c-0.3-0.6-0.6-1.1-0.9-1.7c-1.1-2.2-2.2-4.3-3.4-6.5c0-0.1-0.1-0.1-0.1-0.2c-2.5-4.7-5.1-9.5-7.8-14.1
			c-0.1-0.2-0.2-0.3-0.3-0.5c-1.2-2.1-2.4-4.2-3.7-6.3c-0.1-0.3-0.3-0.5-0.4-0.8c-1.3-2.2-2.7-4.4-4-6.6c-0.1-0.2-0.2-0.4-0.4-0.6
			c-1.2-1.9-2.4-3.8-3.6-5.7c-0.3-0.5-0.6-0.9-0.9-1.4c-1.4-2.1-2.7-4.2-4.1-6.2c-0.1-0.2-0.3-0.4-0.4-0.6c-1.6-2.4-3.2-4.7-4.9-7.1
			c-0.2-0.3-0.4-0.5-0.6-0.8c-1.7-2.4-3.5-4.9-5.3-7.3c-0.3-0.4-0.5-0.7-0.8-1.1c-1.8-2.4-3.6-4.8-5.4-7.1c-0.2-0.3-0.5-0.6-0.7-0.9
			c-1.9-2.5-3.8-4.9-5.8-7.3c-2.1-2.6-4.2-5.1-6.3-7.7c0,0,0-0.1-0.1-0.1c-2-2.3-4-4.7-6-7c-0.2-0.2-0.3-0.4-0.5-0.6
			c-0.2-0.2-0.4-0.4-0.6-0.6c-1.3-1.4-2.6-2.9-3.9-4.3c-0.3-0.4-0.7-0.8-1-1.1c-1.6-1.8-3.3-3.6-5-5.4c-0.2-0.2-0.3-0.3-0.5-0.5
			c-1.5-1.6-2.9-3.1-4.4-4.7c-0.4-0.4-0.8-0.8-1.1-1.2c-1.7-1.7-3.4-3.4-5.1-5.1c-2-2-3.9-3.9-5.9-5.8c-0.1-0.1-0.2-0.1-0.2-0.2
			c-0.1-0.1-0.2-0.2-0.4-0.3c-1.6-1.6-3.3-3.1-4.9-4.7c-0.4-0.3-0.7-0.7-1.1-1c-1.9-1.7-3.7-3.5-5.6-5.2c0,0,0,0-0.1,0
			c-4-3.6-8.2-7.2-12.3-10.7c0,0-0.1-0.1-0.1-0.1c-1.9-1.6-3.9-3.2-5.8-4.8c-0.2-0.2-0.5-0.4-0.7-0.6c-4-3.2-8-6.3-12-9.4
			c-0.4-0.3-0.8-0.6-1.2-0.9c-2-1.5-4-3-6-4.4c-0.2-0.2-0.4-0.3-0.7-0.5c-2.3-1.7-4.6-3.3-7-5c-0.3-0.2-0.6-0.4-0.9-0.6
			c-2.5-1.7-4.9-3.4-7.4-5c-0.4-0.2-0.7-0.5-1.1-0.7c-2.5-1.7-5-3.3-7.5-4.9c-0.3-0.2-0.6-0.3-0.8-0.5c-2.6-1.7-5.3-3.3-8-4.9
			c-2.8-1.7-5.6-3.3-8.4-5c-0.1-0.1-0.2-0.1-0.4-0.2c-2.6-1.5-5.2-3-7.9-4.4c-0.2-0.1-0.5-0.3-0.7-0.4c-0.3-0.2-0.7-0.4-1.1-0.6
			c-2.3-1.2-4.5-2.5-6.8-3.7c-0.5-0.2-0.9-0.5-1.4-0.7c-5.6-2.9-11.2-5.7-16.9-8.4c-0.4-0.2-0.8-0.4-1.2-0.6
			c-2.8-1.3-5.6-2.6-8.5-3.9c0,0,0,0,0,0c0,0,0,0,0,0c-2.7-1.2-5.3-2.3-8-3.5c-2-0.9-4.1-1.7-6.2-2.5c-0.6-0.2-1.2-0.5-1.7-0.7
			c-1.5-0.6-3-1.2-4.5-1.8c-0.6-0.2-1.3-0.5-1.9-0.7c-1.5-0.6-3.1-1.2-4.7-1.8c-0.5-0.2-1-0.4-1.6-0.6c-1.9-0.7-3.8-1.4-5.7-2.1
			c-0.2-0.1-0.3-0.1-0.5-0.2c-4.6-1.6-9.2-3.2-13.8-4.6c-2.1-0.7-4.2-1.3-6.3-2c0,0,0,0,0,0c-2.3-0.7-4.5-1.4-6.8-2
			c-0.4-0.1-0.8-0.2-1.2-0.3c-1.7-0.5-3.5-1-5.2-1.4c-1.4-0.4-2.8-0.8-4.3-1.2c-1.8-0.5-3.6-0.9-5.3-1.3c-1.4-0.3-2.8-0.7-4.2-1
			c-1.8-0.4-3.6-0.8-5.5-1.3c-1.4-0.3-2.7-0.6-4.1-0.9c-1.9-0.4-3.8-0.8-5.7-1.2c-1.2-0.2-2.3-0.5-3.5-0.7c-0.2,0-0.3-0.1-0.5-0.1
			c-1.9-0.4-3.7-0.7-5.6-1c-1.4-0.3-2.7-0.5-4.1-0.8c-1.7-0.3-3.4-0.6-5.1-0.8c-1.5-0.2-2.9-0.5-4.4-0.7c-3.2-0.5-6.5-1-9.7-1.4
			c-0.1,0-0.2,0-0.4,0c-2.2-0.3-4.5-0.6-6.7-0.8c-0.6-0.1-1.3-0.1-1.9-0.2c-1.7-0.2-3.4-0.4-5.1-0.5c-0.6-0.1-1.3-0.1-1.9-0.2
			c-2-0.2-4.1-0.4-6.1-0.6c-0.2,0-0.4,0-0.6-0.1c-2.3-0.2-4.7-0.4-7.1-0.5c-0.1,0-0.2,0-0.3,0c-0.2,0-0.5,0-0.7,0
			c-2.2-0.1-4.3-0.3-6.5-0.4c-0.5,0-1-0.1-1.5-0.1c-2.5-0.1-4.9-0.2-7.4-0.3c-0.2,0-0.4,0-0.7,0c-2.3-0.1-4.5-0.1-6.8-0.2
			c-0.6,0-1.1,0-1.7,0c-2.5,0-5-0.1-7.5-0.1c-2.5,0-5,0-7.5,0.1c-0.6,0-1.1,0-1.7,0c-2.3,0-4.5,0.1-6.8,0.2c-0.2,0-0.4,0-0.7,0
			c-2.5,0.1-4.9,0.2-7.4,0.3c-0.5,0-1,0.1-1.5,0.1c-2.2,0.1-4.3,0.2-6.5,0.4c-0.2,0-0.5,0-0.7,0c-0.1,0-0.2,0-0.3,0
			c-2.4,0.2-4.7,0.3-7,0.5c-0.2,0-0.4,0-0.7,0.1c-2,0.2-4.1,0.4-6.1,0.6c-0.6,0.1-1.3,0.1-1.9,0.2c-1.7,0.2-3.4,0.4-5.1,0.5
			c-0.6,0.1-1.3,0.1-1.9,0.2c-2.3,0.3-4.5,0.5-6.7,0.8c-0.1,0-0.2,0-0.4,0c-3.2,0.4-6.5,0.9-9.7,1.4c-1.5,0.2-3,0.5-4.5,0.7
			c-1.7,0.3-3.4,0.5-5,0.8c-1.4,0.2-2.8,0.5-4.2,0.8c-1.8,0.3-3.7,0.7-5.5,1c-0.2,0-0.3,0.1-0.5,0.1c-1.2,0.2-2.4,0.5-3.6,0.7
			c-1.9,0.4-3.7,0.8-5.6,1.2c-1.4,0.3-2.8,0.6-4.2,0.9c-1.8,0.4-3.6,0.8-5.4,1.2c-1.4,0.3-2.8,0.7-4.2,1.1c-1.8,0.4-3.5,0.9-5.3,1.3
			c-1.4,0.4-2.9,0.8-4.3,1.2c-1.7,0.5-3.5,0.9-5.2,1.4c-0.4,0.1-0.8,0.2-1.2,0.3c-2.3,0.7-4.5,1.3-6.8,2c0,0,0,0,0,0
			c-2.4,0.7-4.9,1.5-7.3,2.3c-4.3,1.4-8.5,2.8-12.8,4.3c-0.2,0.1-0.3,0.1-0.5,0.2c-1.9,0.7-3.8,1.4-5.7,2.1c-0.5,0.2-1,0.4-1.5,0.6
			c-1.6,0.6-3.1,1.2-4.7,1.8c-0.6,0.2-1.2,0.5-1.8,0.7c-1.5,0.6-3.1,1.2-4.6,1.8c-0.6,0.2-1.1,0.5-1.7,0.7c-2.1,0.8-4.1,1.7-6.2,2.6
			c-2.7,1.1-5.4,2.3-8,3.5c0,0,0,0,0,0c0,0,0,0,0,0c-2.8,1.3-5.7,2.6-8.5,3.9c-0.4,0.2-0.8,0.4-1.2,0.5c-5.7,2.7-11.4,5.5-16.9,8.4
			c-0.5,0.2-0.9,0.5-1.4,0.7c-2.3,1.2-4.6,2.4-6.9,3.7c-0.3,0.2-0.7,0.4-1,0.6c-0.2,0.1-0.5,0.3-0.7,0.4c-2.6,1.5-5.3,2.9-7.9,4.5
			c-0.1,0.1-0.2,0.1-0.3,0.2c-2.8,1.6-5.6,3.3-8.4,5c-2.7,1.6-5.3,3.3-8,4.9c-0.3,0.2-0.5,0.3-0.8,0.5c-2.5,1.6-5,3.2-7.5,4.9
			c-0.4,0.2-0.7,0.5-1.1,0.7c-2.5,1.7-5,3.3-7.4,5.1c-0.3,0.2-0.6,0.4-0.9,0.6c-2.3,1.6-4.7,3.3-7,5c-0.2,0.2-0.4,0.3-0.6,0.5
			c-2,1.5-4,2.9-6,4.4c-0.4,0.3-0.8,0.6-1.2,0.9c-4,3.1-8.1,6.2-12,9.4c-0.2,0.2-0.5,0.4-0.7,0.6c-1.9,1.6-3.9,3.2-5.8,4.8
			c0,0-0.1,0.1-0.1,0.1c-4.2,3.5-8.3,7.1-12.3,10.7c0,0,0,0-0.1,0.1c-1.9,1.7-3.8,3.4-5.6,5.2c-0.4,0.3-0.7,0.7-1.1,1
			c-1.7,1.6-3.3,3.1-5,4.7c-0.1,0.1-0.2,0.2-0.4,0.3c-0.1,0.1-0.2,0.2-0.2,0.2c-2,1.9-4,3.9-5.9,5.8c-1.7,1.7-3.4,3.4-5.1,5.1
			c-0.4,0.4-0.8,0.8-1.1,1.2c-1.5,1.6-3,3.1-4.5,4.7c-0.2,0.2-0.3,0.3-0.5,0.5c-1.7,1.8-3.3,3.6-5,5.4c-0.3,0.4-0.7,0.8-1,1.1
			c-1.3,1.4-2.6,2.9-3.8,4.3c-0.2,0.2-0.4,0.4-0.6,0.6c-0.2,0.2-0.4,0.4-0.5,0.6c-2,2.3-4,4.6-6,7c0,0,0,0,0,0.1
			c-2.1,2.5-4.2,5.1-6.3,7.7c-2,2.4-3.9,4.9-5.8,7.3c-0.2,0.3-0.5,0.6-0.7,0.9c-1.8,2.4-3.6,4.8-5.4,7.2c-0.3,0.4-0.5,0.7-0.8,1.1
			c-1.8,2.4-3.5,4.8-5.3,7.3c-0.2,0.3-0.4,0.5-0.6,0.8c-1.6,2.3-3.3,4.7-4.9,7.1c-0.1,0.2-0.3,0.4-0.4,0.6c-1.4,2.1-2.8,4.1-4.1,6.2
			c-0.3,0.5-0.6,0.9-0.9,1.4c-1.2,1.9-2.4,3.8-3.6,5.7c-0.1,0.2-0.3,0.4-0.4,0.6c-1.4,2.2-2.7,4.4-4,6.6c-0.2,0.3-0.3,0.5-0.5,0.8
			c-1.2,2.1-2.5,4.2-3.7,6.2c-0.1,0.2-0.2,0.3-0.3,0.5c-2.7,4.6-5.3,9.3-7.8,14.1c0,0.1-0.1,0.1-0.1,0.2c-2.6,4.8-5,9.7-7.4,14.6
			c0,0,0,0,0,0c0,0,0,0,0,0c-0.9,1.9-1.8,3.8-2.7,5.7c0,0.1-0.1,0.2-0.1,0.3c-0.8,1.7-1.6,3.5-2.4,5.3c-0.1,0.3-0.2,0.5-0.3,0.8
			c-0.7,1.6-1.5,3.2-2.2,4.8c-0.2,0.4-0.3,0.7-0.5,1.1c-0.8,1.9-1.7,3.8-2.5,5.8c-0.9,2.1-1.8,4.3-2.6,6.4c-0.1,0.1-0.1,0.3-0.2,0.4
			c-0.8,2.1-1.7,4.2-2.5,6.3c-0.1,0.3-0.2,0.6-0.4,1c-0.7,1.9-1.5,3.8-2.2,5.8c-0.4,1.1-0.8,2.2-1.2,3.3c-0.7,2-1.4,4-2.1,6
			c-0.3,0.9-0.7,1.8-1,2.8c0,0.1-0.1,0.3-0.1,0.4c-1,3-2,6-3,9c0,0.1-0.1,0.2-0.1,0.3c-0.8,2.6-1.6,5.2-2.4,7.9
			c-0.3,0.9-0.5,1.8-0.8,2.7c-0.5,1.8-1,3.5-1.5,5.3c-0.3,1-0.6,2-0.8,3.1c-0.5,1.7-0.9,3.3-1.3,5c-0.3,1-0.5,2.1-0.8,3.1
			c-0.2,0.6-0.3,1.2-0.5,1.8c-0.2,0.7-0.3,1.5-0.5,2.2c-0.5,1.9-0.9,3.9-1.4,5.8c-0.3,1.2-0.6,2.5-0.8,3.7c-0.4,2-0.9,3.9-1.3,5.9
			c-0.2,1.2-0.5,2.4-0.7,3.6c-0.4,2.1-0.8,4.3-1.2,6.4c-0.2,1-0.4,2-0.6,3c-0.6,3.2-1.1,6.3-1.6,9.5c0,0,0,0,0,0.1
			c-1.3,8.1-2.3,16.2-3.2,24.4c0,0,0,0,0,0c0,0,0,0,0,0c-0.3,2.5-0.5,5-0.7,7.5c-0.4,5-0.8,10-1.1,15c-0.1,2.5-0.3,5-0.4,7.5
			c0,0,0,0,0,0c-0.1,3.3-0.2,6.7-0.3,10.1c0,0,0,0,0,0c0,0,0,0,0,0c0,1.6-0.1,3.3-0.1,4.9c0,1.7,0,3.4,0,5.1c0,0,0,0,0,0v0v0
			c0,1.7,0,3.4,0,5.1c0,1.6,0,3.3,0.1,4.9c0,0,0,0,0,0c0,0,0,0,0,0c0.1,3.4,0.2,6.7,0.3,10c0,0,0,0,0,0c0.1,2.5,0.2,5,0.4,7.5
			c0.3,5,0.6,10,1.1,15c0.2,2.5,0.5,5,0.7,7.5c0,0,0,0,0,0c0,0,0,0,0,0c0.2,2,0.4,4.1,0.7,6.1c0.7,6.1,1.6,12.2,2.5,18.3
			c0,0,0,0,0,0.1c1.1,6.8,2.3,13.5,3.6,20.2c1.4,6.7,2.9,13.3,4.5,20c0,0,0,0,0,0c2.4,9.7,5.1,19.3,8.1,28.8c0,0.1,0.1,0.2,0.1,0.3
			c1,3.1,2,6.3,3.1,9.4c0,0,0,0,0,0c0,0,0,0,0,0c2.1,6.3,4.4,12.6,6.8,18.8c0,0,0,0,0,0c0.8,2.1,1.6,4.2,2.5,6.2
			c0.1,0.1,0.1,0.3,0.2,0.4c0.9,2.1,1.7,4.3,2.6,6.4c0,0,0,0,0,0c0,0,0,0,0,0c0.8,1.9,1.6,3.8,2.5,5.7c0.2,0.4,0.3,0.7,0.5,1.1
			c0.7,1.6,1.4,3.2,2.2,4.8c0.1,0.3,0.2,0.5,0.4,0.8c0.8,1.7,1.6,3.5,2.4,5.2c0.1,0.1,0.1,0.2,0.2,0.3c0.9,1.9,1.8,3.8,2.7,5.6
			c0,0,0,0,0,0c0,0,0,0,0,0c2.4,4.9,4.9,9.7,7.4,14.5c0,0.1,0.1,0.1,0.1,0.2c2.5,4.7,5.1,9.4,7.8,14.1c0.1,0.2,0.2,0.3,0.3,0.5
			c1.2,2.1,2.4,4.2,3.7,6.2c0.2,0.3,0.3,0.5,0.5,0.8c1.3,2.2,2.7,4.4,4,6.5c0.1,0.2,0.3,0.4,0.4,0.6c1.2,1.9,2.4,3.8,3.6,5.7
			c0.3,0.5,0.6,0.9,0.9,1.4c1.4,2.1,2.7,4.2,4.1,6.2c0,0,0,0,0,0c1.7,2.6,3.5,5.1,5.3,7.7c0.2,0.3,0.4,0.5,0.6,0.8
			c1.7,2.4,3.5,4.9,5.2,7.3c0.3,0.4,0.5,0.7,0.8,1.1c1.8,2.4,3.6,4.8,5.4,7.1c0.2,0.3,0.5,0.6,0.7,0.9c1.9,2.5,3.8,4.9,5.8,7.3v0
			c0,0,0,0,0,0c2.1,2.6,4.2,5.1,6.3,7.7c0,0,0,0.1,0.1,0.1c2,2.3,4,4.7,6,7c0.2,0.2,0.3,0.4,0.5,0.6c0.2,0.2,0.4,0.4,0.5,0.6
			c1.3,1.4,2.6,2.9,3.8,4.3c0.3,0.4,0.7,0.8,1,1.2c1.6,1.8,3.3,3.6,5,5.4c0.2,0.2,0.3,0.4,0.5,0.5c1.5,1.6,2.9,3.1,4.4,4.6
			c0.4,0.4,0.8,0.8,1.2,1.2c1.7,1.7,3.3,3.4,5,5.1c0,0,0,0,0,0c0,0,0,0,0,0c2,2,4.1,4,6.1,6c0,0,0,0,0,0c3.9,3.8,7.9,7.5,12,11.2
			c0,0,0.1,0.1,0.1,0.1c4,3.6,8.1,7.2,12.3,10.7c0.1,0,0.1,0.1,0.2,0.1c1.9,1.6,3.8,3.2,5.8,4.8c0.2,0.2,0.5,0.4,0.7,0.6
			c3.9,3.2,7.9,6.3,12,9.4c0.4,0.3,0.8,0.6,1.2,0.9c2,1.5,4,3,5.9,4.4c0,0,0,0,0,0c2.5,1.8,5.1,3.6,7.6,5.4c0.3,0.2,0.6,0.4,0.9,0.6
			c2.4,1.7,4.9,3.4,7.4,5c0.4,0.3,0.8,0.5,1.1,0.8c2.5,1.7,5,3.3,7.5,4.9c0.3,0.2,0.6,0.4,0.9,0.5c2.6,1.7,5.3,3.3,7.9,4.9
			c0,0,0,0,0,0c2.8,1.7,5.6,3.3,8.4,4.9c0.1,0.1,0.3,0.1,0.4,0.2c2.8,1.6,5.7,3.3,8.6,4.8c0,0,0,0,0,0s0,0,0,0
			c2.6,1.5,5.3,2.9,8,4.3c0.5,0.2,0.9,0.5,1.4,0.7c2.7,1.4,5.3,2.8,8,4.1c0.3,0.1,0.6,0.3,0.9,0.4c5.8,2.8,11.6,5.6,17.5,8.2
			c0.1,0,0.1,0,0.2,0.1c0.1,0,0.1,0,0.2,0.1c2.6,1.2,5.2,2.3,7.9,3.4c2,0.9,4.1,1.7,6.1,2.5c0.6,0.2,1.2,0.5,1.8,0.7
			c1.5,0.6,3,1.2,4.5,1.8c0.6,0.2,1.3,0.5,1.9,0.7c1.5,0.6,3.1,1.2,4.6,1.8c0.5,0.2,1.1,0.4,1.6,0.6c1.9,0.7,3.7,1.4,5.6,2
			c0.2,0.1,0.4,0.1,0.6,0.2c4.8,1.7,9.6,3.3,14.5,4.9c1.8,0.6,3.7,1.2,5.5,1.7c0,0,0.1,0,0.1,0c2.2,0.7,4.5,1.3,6.7,2c0,0,0,0,0,0
			c0,0,0,0,0,0c6.4,1.8,12.9,3.6,19.4,5.1c6.5,1.6,13,3,19.6,4.3c0,0,0,0,0,0c0,0,0,0,0,0c6.5,1.3,13.1,2.4,19.7,3.4c0,0,0,0,0,0
			c0,0,0,0,0,0c3.2,0.5,6.5,1,9.7,1.4c0.1,0,0.3,0,0.4,0.1c9.8,1.3,19.8,2.3,29.7,3c0,0,0,0,0,0c0,0,0,0,0,0
			c5.4,0.4,10.7,0.6,16.1,0.8c0.2,0,0.5,0,0.7,0c2.2,0.1,4.5,0.1,6.7,0.2c0.6,0,1.2,0,1.7,0c2.5,0,5,0.1,7.4,0.1c0,0,0,0,0,0
			s0,0,0,0c2.5,0,5,0,7.4-0.1c0.6,0,1.2,0,1.7,0c2.2,0,4.5-0.1,6.7-0.2c0.2,0,0.5,0,0.7,0c5.4-0.2,10.8-0.5,16.1-0.8c0,0,0,0,0,0
			c0,0,0,0,0,0c10-0.7,19.9-1.7,29.7-3c0.1,0,0.3,0,0.4-0.1c3.2-0.4,6.5-0.9,9.7-1.4c0,0,0,0,0,0c0,0,0,0,0,0
			c6.6-1,13.1-2.2,19.7-3.4c0,0,0,0,0,0c0,0,0,0,0,0c13.1-2.6,26.1-5.7,38.9-9.4c0,0,0,0,0,0c0,0,0,0,0,0c2.2-0.6,4.5-1.3,6.7-2
			c0,0,0.1,0,0.1,0c2.1-0.6,4.2-1.3,6.3-2c4.6-1.5,9.2-3,13.8-4.6c0.2-0.1,0.4-0.1,0.6-0.2c1.9-0.7,3.7-1.3,5.6-2
			c0.5-0.2,1.1-0.4,1.6-0.6c1.5-0.6,3.1-1.2,4.6-1.7c0.6-0.2,1.3-0.5,1.9-0.7c1.5-0.6,3-1.2,4.5-1.8c0.6-0.2,1.2-0.5,1.8-0.7
			c2-0.8,4-1.7,6.1-2.5c0,0,0.1,0,0.1,0c0,0,0,0,0,0c2.7-1.1,5.3-2.3,8-3.5c0,0,0,0,0,0c0,0,0,0,0,0c12.2-5.4,24.2-11.4,35.9-17.8
			c0,0,0,0,0,0c0,0,0,0,0,0c2.9-1.6,5.7-3.2,8.6-4.8c0.1-0.1,0.3-0.2,0.4-0.2c2.8-1.6,5.6-3.3,8.3-4.9c0,0,0,0,0,0c0,0,0,0,0,0
			c2.7-1.6,5.3-3.3,7.9-4.9c0.3-0.2,0.6-0.4,0.9-0.6c2.5-1.6,5-3.2,7.5-4.9c0.4-0.3,0.8-0.5,1.2-0.8c2.5-1.7,4.9-3.3,7.4-5
			c0.3-0.2,0.6-0.4,0.9-0.7c2.5-1.8,5.1-3.6,7.6-5.4c0,0,0,0,0,0c0,0,0,0,0,0c2-1.5,4-2.9,5.9-4.4c0.4-0.3,0.8-0.6,1.2-0.9
			c4-3.1,8-6.2,12-9.4c0.2-0.2,0.5-0.4,0.7-0.6c1.9-1.6,3.9-3.2,5.8-4.8c0.1,0,0.1-0.1,0.2-0.1c4.1-3.5,8.2-7.1,12.3-10.7
			c0,0,0.1-0.1,0.1-0.1c4.1-3.7,8.1-7.4,12-11.2c0,0,0,0,0,0c2.1-2,4.1-4,6.1-6c0,0,0,0,0,0c0,0,0,0,0,0c1.7-1.7,3.4-3.4,5-5.1
			c0.4-0.4,0.8-0.8,1.2-1.2c1.5-1.5,2.9-3.1,4.4-4.6c0.2-0.2,0.3-0.4,0.5-0.5c3.5-3.8,7-7.6,10.4-11.5c0,0,0,0,0,0c0,0,0,0,0,0
			c2.2-2.5,4.4-5,6.5-7.5c0,0,0.1-0.1,0.1-0.1c2.1-2.5,4.2-5.1,6.3-7.6c0,0,0,0,0,0c2-2.4,3.9-4.9,5.8-7.3c0.2-0.3,0.5-0.6,0.7-0.9
			c1.8-2.4,3.6-4.7,5.4-7.1c0.3-0.4,0.5-0.7,0.8-1.1c1.8-2.4,3.5-4.8,5.2-7.3c0.2-0.3,0.4-0.6,0.6-0.8c1.8-2.5,3.6-5.1,5.3-7.7
			c0,0,0,0,0,0c1.4-2.1,2.8-4.1,4.1-6.2c0.3-0.5,0.6-0.9,0.9-1.4c1.2-1.9,2.4-3.8,3.6-5.7c0.1-0.2,0.3-0.4,0.4-0.6
			c1.4-2.2,2.7-4.4,4-6.5c0.2-0.3,0.3-0.5,0.5-0.8c1.2-2.1,2.5-4.1,3.7-6.2c0.1-0.2,0.2-0.3,0.3-0.5c2.7-4.6,5.3-9.3,7.8-14.1
			c0-0.1,0.1-0.1,0.1-0.2c2.6-4.8,5-9.7,7.4-14.6c0,0,0,0,0,0c0.9-1.9,1.8-3.8,2.7-5.7c0-0.1,0.1-0.2,0.1-0.3
			c0.8-1.7,1.6-3.5,2.4-5.3c0.1-0.3,0.2-0.5,0.3-0.8c0.7-1.6,1.4-3.2,2.2-4.8c0.2-0.4,0.3-0.7,0.5-1.1c0.8-1.9,1.7-3.8,2.5-5.7
			c0,0,0,0,0,0c0,0,0,0,0,0c0.9-2.1,1.8-4.2,2.6-6.4c0.1-0.1,0.1-0.3,0.2-0.4c0.8-2.1,1.7-4.2,2.5-6.2c0,0,0,0,0,0
			c2.4-6.2,4.7-12.5,6.8-18.8c0,0,0,0,0,0c0,0,0,0,0,0c1.1-3.1,2.1-6.3,3.1-9.4c0-0.1,0.1-0.2,0.1-0.3c3-9.5,5.7-19.1,8.1-28.8
			c0,0,0,0,0,0c1.6-6.6,3.1-13.3,4.5-20c1.4-6.7,2.6-13.4,3.6-20.2c0,0,0,0,0-0.1c1-6.1,1.8-12.2,2.5-18.3c0.2-2,0.5-4.1,0.7-6.1
			c0,0,0,0,0,0c0,0,0,0,0,0c0.3-2.5,0.5-5,0.7-7.5c0.7-7.5,1.1-15,1.5-22.5c0,0,0,0,0,0c0.1-3.3,0.2-6.7,0.3-10c0,0,0,0,0,0
			c0,0,0,0,0,0c0-1.6,0.1-3.3,0.1-4.9c0-1.7,0-3.4,0-5.1v0v0c0,0,0,0,0,0C975,498.3,975,496.6,975,494.9z M919.7,432.9
			c0.2,1.2,0.4,2.5,0.6,3.7c0.1,0.6,0.2,1.2,0.3,1.8c0.1,0.7,0.2,1.4,0.3,2.1c-0.4-2.8-0.8-5.5-1.2-8.3
			C919.7,432.5,919.7,432.7,919.7,432.9z M918.8,427.3c0.2,1.1,0.4,2.2,0.6,3.4c0.1,0.3,0.1,0.7,0.2,1c-0.3-1.8-0.6-3.5-0.9-5.3
			C918.7,426.7,918.8,427,918.8,427.3z M917.8,421.8c0.2,1.1,0.4,2.2,0.6,3.2c0,0.3,0.1,0.5,0.1,0.8c-0.3-1.8-0.6-3.6-1-5.4
			C917.7,420.9,917.8,421.4,917.8,421.8z M916.3,414c0.2,0.8,0.3,1.5,0.5,2.3c0.2,1.1,0.4,2.1,0.6,3.2c0,0.2,0.1,0.4,0.1,0.6
			c-0.6-2.9-1.1-5.8-1.7-8.7C916,412.3,916.1,413.1,916.3,414z M876,301.7c0.4,0.7,0.8,1.5,1.2,2.2c0.3,0.7,0.7,1.3,1,2
			c-0.9-1.8-1.8-3.6-2.8-5.3C875.6,301,875.8,301.3,876,301.7z M870.7,292c0.3,0.6,0.6,1.1,0.9,1.7c0.2,0.4,0.4,0.8,0.7,1.2
			c-1-1.7-1.9-3.5-2.9-5.2C869.8,290.5,870.3,291.3,870.7,292z M866.4,284.5c0.3,0.5,0.6,1,0.9,1.5c0.1,0.2,0.3,0.5,0.4,0.7
			c-0.6-1-1.2-2-1.7-3C866.1,284,866.3,284.3,866.4,284.5z M862.6,278.3c0.4,0.6,0.8,1.2,1.1,1.8c0.2,0.3,0.4,0.6,0.6,0.9
			c-0.6-1-1.2-2-1.8-3C862.5,278.1,862.6,278.2,862.6,278.3z M860.1,274.2c0.3,0.4,0.5,0.8,0.8,1.2c-0.6-1-1.3-2.1-2-3.1
			C859.3,272.9,859.7,273.6,860.1,274.2z M879.6,308.6c0.4,0.7,0.8,1.5,1.1,2.2c0.2,0.4,0.4,0.8,0.6,1.1c1.1,2.3,2.3,4.6,3.4,7
			c0.7,1.4,1.3,2.8,2,4.3c0.5,1.1,1,2.2,1.5,3.3c1.2,2.7,2.4,5.3,3.5,8c0,0,0,0,0,0c0.7,1.8,1.5,3.5,2.2,5.3c0,0,0,0.1,0.1,0.1
			c0.8,2.1,1.7,4.2,2.5,6.2c0.2,0.5,0.4,1.1,0.6,1.6c0.7,1.8,1.4,3.7,2.1,5.5c0.1,0.2,0.2,0.4,0.2,0.7c0.8,2.2,1.6,4.4,2.4,6.6
			c0.1,0.2,0.1,0.4,0.2,0.6c0.8,2.2,1.5,4.4,2.2,6.7c0.1,0.3,0.2,0.7,0.3,1c0.4,1.3,0.8,2.5,1.2,3.8c0.1,0.4,0.2,0.7,0.3,1.1
			c0.4,1.3,0.8,2.6,1.2,4c0.1,0.3,0.2,0.6,0.3,0.9c0.4,1.4,0.8,2.8,1.2,4.2c0.1,0.2,0.1,0.4,0.2,0.6c0.4,1.5,0.8,2.9,1.2,4.4
			c0,0.1,0.1,0.3,0.1,0.4c0.4,1.5,0.8,3.1,1.2,4.6c0,0.1,0,0.1,0,0.2c0.4,1.6,0.8,3.2,1.2,4.8c0,0,0,0,0,0c0.4,1.8,0.9,3.5,1.3,5.3
			c0.2,0.7,0.3,1.4,0.5,2c0.3,1.1,0.5,2.3,0.8,3.4c0.2,0.7,0.3,1.5,0.5,2.2c0,0.2,0.1,0.3,0.1,0.5c-0.6-2.9-1.3-5.8-1.9-8.6
			l-41.4,15.1l-5.7-32.6l-19.1,3.4l-9.6-26.4l16.8-9.7l-16.5-28.6L879.6,308.6z M852.7,456.5v19.3l-3.1,0.5l-13-73.8l3.1-0.5
			l6.6,18.2l11.3-4.1l-5.9-16.2l5.2-0.9l13,73.8l-5.2,0.9v-17.2H852.7z M846.3,579.8l-6.6,18.2l-3.1-0.5l13-73.8l3.1,0.5v19.3h12
			v-17.2l5.2,0.9l-13,73.8l-5.2-0.9l5.9-16.2L846.3,579.8z M798.1,693.4l-12.4,14.8l-2.7-1.6l37.5-64.9l2.7,1.6l-6.6,18.2l11.3,4.1
			l5.9-16.2l4.6,2.6L800.8,717l-4.6-2.6l11.1-13.2L798.1,693.4z M777.9,717.6l-15.4,18.3l-8.4-10l-75.8,63.6l8.4,10L666,811.4
			l-4.5-12.2l-93,33.8l4.5,12.2l-23.5,4.1v-13h-99v13l-23.5-4.1l4.5-12.2l-93-33.8l-4.5,12.2l-20.7-11.9l8.4-10l-75.8-63.6l-8.4,10
			l-15.4-18.3l11.3-6.5l-49.5-85.7l-11.3,6.5l-8.2-22.5l12.8-2.3l-17.2-97.5l-12.8,2.3v-23.9l12.8,2.3l17.2-97.5l-12.8-2.3l8.2-22.5
			l11.3,6.5l49.5-85.7l-11.3-6.5l15.4-18.3l8.4,10l75.8-63.6l-8.4-10l20.7-11.9l4.5,12.2l32.3-11.7l49.5-18l11.2-4.1l-4.5-12.2
			l23.5-4.1v13h99v-13l23.5,4.1l-4.5,12.2l93,33.8l4.5-12.2l20.7,11.9l-8.4,10l75.8,63.6l8.4-10l15.4,18.3l-11.3,6.5l49.5,85.7
			l11.3-6.5l8.2,22.5l-12.8,2.3l17.2,97.5l12.8-2.3v23.9l-12.8-2.3l-17.2,97.5l12.8,2.3l-8.2,22.5l-11.3-6.5L766.6,711L777.9,717.6z
			 M604.1,839.8l-19.1,3.4l-1.1-2.9l70.4-25.6l1.1,2.9l-16.8,9.7l6,10.4l14.9-8.6l1.8,5L591,859.6l-1.8-5l17-3L604.1,839.8z
			 M410.8,854.6l-1.8,5l-70.4-25.6l1.8-5l14.9,8.6l6-10.4l-16.8-9.7l1.1-2.9l70.4,25.6l-1.1,2.9l-19.1-3.4l-2.1,11.8L410.8,854.6z
			 M203.8,714.3l-4.6,2.6L161.7,652l4.6-2.6l5.9,16.2l11.3-4.1l-6.6-18.2l2.7-1.6l37.5,64.9l-2.7,1.6l-12.4-14.8l-9.2,7.7
			L203.8,714.3z M148.3,600.1l-5.2,0.9l-13-73.8l5.2-0.9v17.2h12v-19.3l3.1-0.5l13,73.8l-3.1,0.5l-6.6-18.2l-11.3,4.1L148.3,600.1z
			 M153.7,420.2l6.6-18.2l3.1,0.5l-13,73.8l-3.1-0.5v-19.3h-12v17.2l-5.2-0.9l13-73.8l5.2,0.9l-5.9,16.2L153.7,420.2z M201.9,306.6
			l12.4-14.8l2.7,1.6l-37.5,64.9l-2.7-1.6l6.6-18.2l-11.3-4.1l-5.9,16.2l-4.6-2.6l37.5-64.9l4.6,2.6l-11.1,13.2L201.9,306.6z
			 M286,216.3l16.8-9.7l2,2.4l-57.4,48.2l-2-2.4l12.4-14.8l-9.2-7.7l-11.1,13.2l-3.4-4l57.4-48.2l3.4,4l-14.9,8.6L286,216.3z
			 M395.9,160.2l19.1-3.4l1.1,2.9l-70.4,25.6l-1.1-2.9l16.8-9.7l-6-10.4l-14.9,8.6l-1.8-5l70.4-25.6l1.8,5l-17,3L395.9,160.2z
			 M479.5,133.3l-17,3V131h75v5.3l-17-3l-2.1,11.8l19.1,3.4v3.1h-75v-3.1l19.1-3.4L479.5,133.3z M589.2,145.4l1.8-5l70.4,25.6
			l-1.8,5l-14.9-8.6l-6,10.4l16.8,9.7l-1.1,2.9l-70.4-25.6l1.1-2.9l19.1,3.4l2.1-11.8L589.2,145.4z M705.1,197.3l3.4-4l57.4,48.2
			l-3.4,4l-11.1-13.2l-9.2,7.7l12.4,14.8l-2,2.4L695.2,209l2-2.4l16.8,9.7l6-10.4L705.1,197.3z M796.2,285.7l4.6-2.6l37.5,64.9
			l-4.6,2.6l-5.9-16.2l-11.3,4.1l6.6,18.2l-2.7,1.6L783,293.3l2.7-1.6l12.4,14.8l9.2-7.7L796.2,285.7z M856.3,268.2
			c0.4,0.6,0.7,1.1,1.1,1.7c-0.5-0.8-1-1.6-1.6-2.4C856,267.7,856.1,268,856.3,268.2z M788.3,187.8c0.5,0.4,0.9,0.9,1.4,1.3
			c0,0,0,0,0,0C789.3,188.7,788.8,188.2,788.3,187.8C788.3,187.8,788.3,187.8,788.3,187.8z M783,183c0.1,0.1,0.1,0.1,0.2,0.2
			C783.1,183.1,783,183,783,183C783,182.9,783,182.9,783,183z M775.3,176.3c1.8,1.6,3.7,3.2,5.5,4.8c0,0,0.1,0.1,0.1,0.1
			c-1.9-1.7-3.9-3.4-5.8-5.1C775.2,176.1,775.3,176.2,775.3,176.3z M768.9,170.9c1,0.8,2,1.7,3,2.5c0,0,0.1,0.1,0.1,0.1
			C771,172.6,769.9,171.7,768.9,170.9C768.9,170.8,768.9,170.8,768.9,170.9z M760.8,164.4c0.8,0.6,1.6,1.2,2.4,1.8
			c0,0,0.1,0.1,0.1,0.1c-0.9-0.7-1.8-1.4-2.7-2.1C760.6,164.3,760.7,164.3,760.8,164.4z M791.1,190.4c1.3,1.2,2.5,2.4,3.8,3.6
			c1.9,1.8,3.8,3.6,5.6,5.5c0,0,0,0,0,0c0,0,0,0,0,0c2,2,4,4.1,6,6.1c0.9,0.9,1.8,1.9,2.7,2.8c0.8,0.9,1.6,1.8,2.5,2.6
			c2.3,2.5,4.6,5,6.8,7.6c0.1,0.1,0.2,0.2,0.3,0.3c2.3,2.6,4.6,5.2,6.8,7.9c0,0,0,0,0,0c2.1,2.6,4.3,5.1,6.3,7.7
			c2.1,2.6,4.2,5.2,6.2,7.9c0,0,0,0,0,0c2,2.7,4,5.3,6,8c0,0,0,0,0,0c1.8,2.4,3.5,4.9,5.2,7.4c0.3,0.5,0.7,0.9,1,1.4
			c1.7,2.4,3.3,4.9,4.9,7.3c0.1,0.1,0.2,0.3,0.3,0.4l-33.7,28.3l-16.5-28.6l-16.8,9.7l-18.1-21.5l12.5-14.9l-25.3-21.3L791.1,190.4z
			 M529.1,76C529.1,76,529.1,76,529.1,76c1.7,0.1,3.3,0.2,5,0.4c0.1,0,0.1,0,0.2,0c1.6,0.1,3.2,0.3,4.8,0.4c0.1,0,0.3,0,0.4,0
			c1.5,0.1,3,0.3,4.5,0.4c0.2,0,0.5,0.1,0.7,0.1c1.4,0.1,2.8,0.3,4.2,0.5c0.4,0,0.8,0.1,1.1,0.1c1.3,0.2,2.6,0.3,3.9,0.5
			c0.5,0.1,1,0.1,1.4,0.2c1.2,0.2,2.4,0.3,3.6,0.5c0.5,0.1,1.1,0.2,1.6,0.2c2.3,0.3,4.6,0.7,7,1c0,0,0,0,0,0
			c4.4,0.7,8.8,1.5,13.2,2.3c0.4,0.1,0.8,0.2,1.2,0.2c2.1,0.4,4.2,0.8,6.3,1.3c0.1,0,0.2,0,0.3,0.1c1.5,0.3,3,0.6,4.4,1
			c0.2,0,0.3,0.1,0.5,0.1c1.5,0.3,2.9,0.7,4.4,1c0.2,0,0.3,0.1,0.5,0.1c1.5,0.4,3,0.7,4.4,1.1c0.1,0,0.3,0.1,0.4,0.1
			c1.5,0.4,3,0.8,4.5,1.2c0.1,0,0.2,0.1,0.3,0.1c1.5,0.4,3.1,0.8,4.6,1.2c0.1,0,0.1,0,0.2,0.1c1.6,0.4,3.1,0.9,4.7,1.3
			c0,0,0,0,0.1,0c1.6,0.5,3.3,1,4.9,1.5c1.7,0.5,3.5,1.1,5.2,1.6c0,0,0.1,0,0.1,0c1.7,0.5,3.4,1.1,5.1,1.7c0.1,0,0.2,0.1,0.4,0.1
			c1.6,0.5,3.2,1.1,4.8,1.6c0.2,0.1,0.4,0.1,0.6,0.2c1.5,0.5,3,1.1,4.5,1.6c0.3,0.1,0.6,0.2,0.9,0.3c1.4,0.5,2.8,1,4.2,1.6
			c0.4,0.1,0.8,0.3,1.1,0.4c1.3,0.5,2.7,1,4,1.5c0.4,0.2,0.9,0.3,1.3,0.5c1.3,0.5,2.7,1.1,4,1.6c0.4,0.2,0.8,0.3,1.2,0.5
			c1.7,0.7,3.4,1.4,5.1,2.1c0.8,0.3,1.6,0.7,2.3,1c6.2,2.7,12.3,5.4,18.3,8.4c0,0,0,0,0,0c3,1.5,5.9,2.9,8.9,4.5
			c0.1,0,0.1,0.1,0.2,0.1c2.5,1.3,5.1,2.7,7.6,4c0.7,0.4,1.3,0.7,2,1.1c2.5,1.4,5,2.8,7.4,4.2c0.5,0.3,0.9,0.5,1.4,0.8
			c2.3,1.3,4.5,2.6,6.7,4c0.4,0.3,0.9,0.5,1.3,0.8c2.5,1.5,5,3.1,7.5,4.7c0.5,0.3,0.9,0.6,1.4,0.9c2.5,1.6,5.1,3.3,7.6,5
			c0,0,0,0,0,0c2.8,1.9,5.5,3.8,8.2,5.7c0.2,0.1,0.3,0.2,0.5,0.3c2.6,1.8,5.1,3.7,7.7,5.6c0.2,0.2,0.4,0.3,0.7,0.5
			c-0.2-0.2-0.5-0.3-0.7-0.5l-22,38.1L707,176.3l-12.5,14.9l-24.4-14.1l6.6-18.2l-31.1-11.3l22-38.2c-0.8-0.3-1.5-0.7-2.3-1
			c-14.1-6-28.4-11.1-42.9-15.5l-7.7,43.4l-31.1-11.3l-6.6,18.2l-27.7-4.9V119h-33.1l7.6-43.3C525.7,75.8,527.4,75.9,529.1,76z
			 M518.2,75.4c1.9,0.1,3.8,0.2,5.7,0.3c0,0,0,0,0.1,0C522,75.6,520,75.5,518.2,75.4C518.1,75.4,518.1,75.4,518.2,75.4z M512.5,75.2
			c1.8,0.1,3.7,0.1,5.5,0.2c0,0,0,0,0.1,0C516.2,75.3,514.3,75.2,512.5,75.2C512.5,75.2,512.5,75.2,512.5,75.2z M506.8,75.1
			c1.7,0,3.4,0.1,5,0.1c0,0,0,0,0,0C510.2,75.1,508.5,75.1,506.8,75.1C506.8,75.1,506.8,75.1,506.8,75.1z M494.2,75
			c1.9,0,3.9,0,5.8,0s3.9,0,5.8,0c0,0,0,0,0,0c-1.9,0-3.9,0-5.8,0S496.1,75,494.2,75C494.2,75,494.2,75,494.2,75z M488.1,75.2
			c1.7,0,3.4-0.1,5-0.1c0,0,0,0,0,0C491.5,75.1,489.8,75.1,488.1,75.2C488.1,75.2,488.1,75.2,488.1,75.2z M482,75.4
			c1.8-0.1,3.7-0.1,5.5-0.2c0,0,0,0,0.1,0C485.7,75.2,483.8,75.3,482,75.4C482,75.4,482,75.4,482,75.4z M476.1,75.7
			c1.9-0.1,3.8-0.2,5.7-0.3c0,0,0.1,0,0.1,0C480,75.5,478,75.6,476.1,75.7C476.1,75.7,476.1,75.7,476.1,75.7z M245.6,159.5
			c2.6-1.9,5.2-3.8,7.8-5.7c0.1-0.1,0.3-0.2,0.4-0.3c8.1-5.8,16.5-11.3,25-16.5c0.2-0.1,0.3-0.2,0.5-0.3c2.4-1.5,4.8-2.9,7.2-4.3
			c0.9-0.5,1.7-1,2.6-1.5c1.8-1,3.6-2.1,5.5-3.1c0.9-0.5,1.7-1,2.6-1.4c2.6-1.4,5.1-2.8,7.7-4.1c0.1,0,0.1-0.1,0.2-0.1
			c2.9-1.5,5.9-3,8.9-4.5c0,0,0,0,0,0c6-2.9,12.1-5.7,18.3-8.4c0.8-0.3,1.6-0.7,2.3-1c1.7-0.7,3.4-1.4,5.1-2.1
			c0.4-0.2,0.8-0.3,1.2-0.5c1.3-0.5,2.6-1.1,4-1.6c0.4-0.2,0.8-0.3,1.3-0.5c1.3-0.5,2.7-1,4-1.5c0.4-0.1,0.7-0.3,1.1-0.4
			c1.4-0.5,2.8-1,4.2-1.6c0.3-0.1,0.6-0.2,0.9-0.3c1.5-0.5,3-1.1,4.5-1.6c0.2-0.1,0.4-0.1,0.6-0.2c1.6-0.6,3.2-1.1,4.9-1.6
			c0.1,0,0.2-0.1,0.4-0.1c1.7-0.6,3.4-1.1,5.2-1.7c0,0,0.1,0,0.1,0c1.7-0.5,3.5-1.1,5.2-1.6c1.6-0.5,3.3-1,4.9-1.5c0,0,0,0,0.1,0
			c1.6-0.5,3.1-0.9,4.7-1.3c0.1,0,0.1,0,0.2-0.1c1.5-0.4,3.1-0.8,4.6-1.2c0.1,0,0.2-0.1,0.3-0.1c1.5-0.4,3-0.8,4.5-1.2
			c0.1,0,0.3-0.1,0.4-0.1c1.5-0.4,3-0.7,4.5-1.1c0.2,0,0.3-0.1,0.5-0.1c1.5-0.3,2.9-0.7,4.4-1c0.2,0,0.3-0.1,0.5-0.1
			c1.5-0.3,3-0.7,4.5-1c0.1,0,0.2,0,0.3-0.1c2.1-0.4,4.2-0.9,6.3-1.3c0.4-0.1,0.8-0.2,1.2-0.2c4.4-0.8,8.8-1.6,13.2-2.3c0,0,0,0,0,0
			c2.3-0.4,4.6-0.7,7-1c0.5-0.1,1.1-0.2,1.6-0.2c1.2-0.2,2.4-0.3,3.6-0.5c0.5-0.1,1-0.1,1.5-0.2c1.3-0.2,2.6-0.3,3.9-0.5
			c0.4,0,0.7-0.1,1.1-0.1c1.4-0.2,2.8-0.3,4.2-0.5c0.3,0,0.5-0.1,0.8-0.1c1.5-0.2,3-0.3,4.5-0.4c0.1,0,0.3,0,0.4,0
			c1.6-0.1,3.2-0.3,4.8-0.4c0.1,0,0.1,0,0.2,0c1.6-0.1,3.3-0.2,4.9-0.4c0,0,0,0,0,0c1.7-0.1,3.3-0.2,5-0.3l7.6,43.3h-33.1v19.4
			l-27.7,4.9l-6.6-18.2l-31.1,11.3l-7.7-43.4c-14.5,4.4-28.8,9.5-42.9,15.5c-0.8,0.3-1.5,0.7-2.3,1l22,38.2l-31.1,11.3l6.6,18.2
			l-24.4,14.1L293,176.3l-25.3,21.3L245.6,159.5c-0.2,0.1-0.4,0.3-0.6,0.5C245.2,159.8,245.4,159.6,245.6,159.5z M236.9,166.2
			c0.8-0.6,1.6-1.2,2.4-1.9c0.1,0,0.1-0.1,0.2-0.1c-0.9,0.7-1.8,1.4-2.7,2.1C236.8,166.3,236.8,166.2,236.9,166.2z M228.1,173.4
			c1-0.8,2-1.7,3-2.5c0,0,0,0,0.1-0.1c-1.1,0.9-2.1,1.8-3.2,2.7C228,173.4,228,173.4,228.1,173.4z M219.1,181.1
			c1.8-1.6,3.7-3.2,5.5-4.8c0.1,0,0.1-0.1,0.2-0.1c-1.9,1.7-3.9,3.3-5.8,5C219.1,181.1,219.1,181.1,219.1,181.1z M217,182.9
			C217,182.9,217,182.9,217,182.9c0,0-0.1,0.1-0.2,0.2C216.9,183.1,216.9,183,217,182.9z M210.3,189.1c0.5-0.4,0.9-0.9,1.4-1.3
			c0,0,0,0,0,0C211.2,188.2,210.7,188.7,210.3,189.1C210.3,189.1,210.3,189.1,210.3,189.1z M144.5,267
			C144.5,267,144.5,267,144.5,267C144.5,267,144.5,267,144.5,267c1.8-2.8,3.7-5.6,5.6-8.3c0,0,0,0,0,0c1.9-2.7,3.8-5.5,5.8-8.1
			c0,0,0,0,0,0c2-2.7,3.9-5.4,6-8c0,0,0,0,0,0c2-2.6,4.1-5.3,6.2-7.9c0,0,0,0,0,0c2.1-2.6,4.2-5.2,6.3-7.7c0,0,0,0,0,0
			c2.1-2.5,4.3-5.1,6.5-7.6c0,0,0,0,0,0c2.4-2.7,4.9-5.5,7.4-8.2c0.8-0.9,1.6-1.8,2.5-2.6c0.9-0.9,1.8-1.9,2.7-2.8
			c2-2.1,4-4.1,6-6.1c0,0,0,0,0,0c0,0,0,0,0,0c1.8-1.8,3.7-3.7,5.6-5.5c1.2-1.2,2.5-2.4,3.8-3.6l33.7,28.3l-25.3,21.3l12.5,14.9
			l-18.1,21.5l-16.8-9.7l-16.5,28.6L144.5,267c-0.7,1.1-1.4,2.1-2.1,3.2C143.1,269.1,143.8,268,144.5,267z M128.3,293.7
			c0.3-0.6,0.6-1.1,1-1.7c0.4-0.8,0.9-1.6,1.4-2.4c-1,1.8-2,3.5-3,5.3C127.9,294.5,128.1,294.1,128.3,293.7z M86.2,402.6
			C86.2,402.6,86.2,402.6,86.2,402.6C86.2,402.6,86.2,402.6,86.2,402.6c0.4-1.6,0.8-3.2,1.2-4.8c0,0,0-0.1,0-0.1
			c0.4-1.6,0.8-3.2,1.2-4.7c0-0.1,0-0.1,0.1-0.2c0.4-1.5,0.8-3,1.2-4.6c0-0.1,0.1-0.3,0.1-0.4c0.4-1.4,0.8-2.9,1.2-4.3
			c0.1-0.2,0.1-0.5,0.2-0.7c0.4-1.4,0.8-2.7,1.2-4.1c0.1-0.3,0.2-0.7,0.3-1c0.4-1.3,0.8-2.6,1.2-3.8c0.1-0.4,0.3-0.8,0.4-1.2
			c0.4-1.2,0.8-2.4,1.2-3.6c0.1-0.4,0.3-0.8,0.4-1.2c0.4-1.2,0.8-2.4,1.2-3.6c0,0,0,0,0,0c0.1-0.2,0.1-0.3,0.2-0.5
			c2.1-6.1,4.3-12.2,6.6-18.2c0-0.1,0-0.1,0.1-0.2c0.7-1.7,1.3-3.4,2-5c0-0.1,0.1-0.2,0.1-0.3c0.7-1.6,1.3-3.2,2-4.9
			c0.1-0.1,0.1-0.3,0.2-0.4c0,0,0,0,0-0.1c1.1-2.7,2.3-5.4,3.5-8c0.5-1.1,1-2.2,1.5-3.2c0.7-1.5,1.3-2.9,2-4.3
			c1.6-3.4,3.2-6.8,4.9-10.1c0-0.1,0.1-0.1,0.1-0.2c0.8-1.6,1.6-3.1,2.4-4.7c0.4-0.8,0.8-1.5,1.2-2.3c0.2-0.4,0.4-0.8,0.6-1.2
			c-1.4,2.7-2.9,5.4-4.2,8.2l41.4,15.1l-16.5,28.6l16.8,9.7l-9.6,26.4l-19.1-3.4l-5.7,32.6L86.2,402.6c-1.3,5.8-2.6,11.6-3.7,17.5
			C83.6,414.2,84.8,408.4,86.2,402.6z M79.4,438.7c0.3-2.2,0.6-4.3,1-6.5c-0.5,2.8-0.9,5.7-1.3,8.5
			C79.2,440.1,79.3,439.4,79.4,438.7z M79.4,561.3c-0.1-0.7-0.2-1.4-0.3-2c0.4,2.9,0.8,5.7,1.3,8.5C80,565.6,79.7,563.4,79.4,561.3z
			 M77.9,550c0.3,2.9,0.7,5.7,1.1,8.5c-0.1-0.8-0.2-1.7-0.3-2.5c0,0,0-0.1,0-0.1C78.4,554,78.1,552,77.9,550
			C77.9,550,77.9,550,77.9,550c-0.2-1.6-0.4-3.2-0.5-4.9c0-0.1,0-0.1,0-0.2c-0.2-1.6-0.3-3.1-0.5-4.7c0-0.1,0-0.2,0-0.4
			c-0.1-1.5-0.3-3-0.4-4.6c0-0.2,0-0.4,0-0.6c-0.1-1.5-0.2-2.9-0.3-4.4c0-0.2,0-0.5,0-0.7c-0.1-1.4-0.2-2.9-0.3-4.3
			c0-0.3,0-0.5,0-0.8c-0.1-1.4-0.2-2.8-0.2-4.2c0-0.3,0-0.6,0-0.8c-0.1-1.4-0.1-2.8-0.2-4.3c0-0.2,0-0.5,0-0.7c0-1.5-0.1-3-0.1-4.5
			c0,0,0,0,0,0c0,0,0,0,0,0c0-1.7-0.1-3.3-0.1-5c0-1.7,0-3.3,0-5v0c0,0,0,0,0,0c0-1.7,0-3.3,0-5c0-1.7,0-3.3,0.1-5c0,0,0,0,0,0
			c0,0,0,0,0,0c0-1.5,0.1-3,0.1-4.5c0-0.2,0-0.5,0-0.7c0-1.4,0.1-2.8,0.2-4.3c0-0.3,0-0.6,0-0.8c0.1-1.4,0.1-2.8,0.2-4.2
			c0-0.3,0-0.5,0-0.8c0.1-1.4,0.2-2.9,0.3-4.3c0-0.2,0-0.5,0-0.7c0.1-1.5,0.2-2.9,0.3-4.4c0-0.2,0-0.4,0-0.6c0.1-1.5,0.3-3,0.4-4.6
			c0-0.1,0-0.2,0-0.4c0.1-1.6,0.3-3.2,0.5-4.7c0-0.1,0-0.1,0-0.2c0.2-1.6,0.3-3.2,0.5-4.9c0,0,0,0,0,0s0,0,0,0c0.2-2,0.5-4,0.7-5.9
			c0,0,0-0.1,0-0.1c0.1-0.8,0.2-1.6,0.3-2.5c-0.4,2.8-0.8,5.7-1.1,8.5h44l-5.7,32.6l19.1,3.4v28.1l-19.1,3.4l5.7,32.6H77.9z
			 M129.3,708c-0.3-0.6-0.7-1.2-1-1.8c-0.2-0.4-0.5-0.9-0.7-1.3c1,1.8,2,3.6,3,5.4C130.2,709.6,129.7,708.8,129.3,708z M120.4,691.4
			c1.4,2.8,2.8,5.5,4.3,8.2c-0.2-0.4-0.4-0.8-0.6-1.2c-0.4-0.8-0.8-1.6-1.2-2.4C122,694.5,121.2,692.9,120.4,691.4
			c-0.1-0.1-0.1-0.2-0.2-0.3c-1.7-3.3-3.3-6.6-4.8-10c-0.7-1.5-1.4-2.9-2-4.4c-0.5-1.1-1-2.1-1.5-3.2c-1.2-2.7-2.4-5.3-3.5-8
			c0,0,0-0.1,0-0.1c-0.1-0.2-0.1-0.3-0.2-0.5c-0.7-1.6-1.3-3.2-2-4.8c-0.1-0.1-0.1-0.3-0.2-0.4c-0.7-1.7-1.3-3.3-2-5
			c0-0.1-0.1-0.2-0.1-0.3c-2.3-6-4.5-12-6.6-18c-0.1-0.2-0.1-0.4-0.2-0.5c-0.4-1.2-0.8-2.4-1.2-3.6c-0.1-0.4-0.3-0.9-0.4-1.3
			c-0.4-1.2-0.8-2.4-1.1-3.6c-0.1-0.4-0.3-0.8-0.4-1.3c-0.4-1.3-0.8-2.5-1.2-3.8c-0.1-0.3-0.2-0.7-0.3-1c-0.4-1.4-0.8-2.7-1.2-4.1
			c-0.1-0.2-0.1-0.5-0.2-0.7c-0.4-1.4-0.8-2.9-1.2-4.3c0-0.1-0.1-0.3-0.1-0.4c-0.4-1.5-0.8-3-1.2-4.6c0-0.1,0-0.2-0.1-0.2
			c-0.4-1.6-0.8-3.1-1.2-4.7c0,0,0-0.1,0-0.1c-0.4-1.6-0.8-3.2-1.2-4.8c0,0,0,0,0,0c-1.4-5.8-2.6-11.6-3.7-17.5
			c1.1,5.9,2.4,11.7,3.7,17.5l41.4-15.1l5.7,32.6l19.1-3.4l9.6,26.4l-16.8,9.7l16.5,28.6L120.4,691.4z M217,817
			c-1.1-1-2.3-2-3.4-3.1C214.7,815,215.9,816,217,817C217,817.1,217,817,217,817z M224.6,823.7c-1.8-1.6-3.7-3.2-5.5-4.8
			c0,0,0,0-0.1,0c1.9,1.7,3.8,3.3,5.7,4.9C224.7,823.8,224.7,823.8,224.6,823.7z M231.1,829.1c-1-0.8-2-1.6-3-2.5c0,0-0.1,0-0.1-0.1
			C229.1,827.5,230.1,828.3,231.1,829.1C231.1,829.2,231.1,829.1,231.1,829.1z M239.2,835.6c-0.8-0.6-1.6-1.2-2.4-1.8
			c0,0-0.1,0-0.1-0.1c0.9,0.7,1.7,1.4,2.6,2C239.3,835.7,239.3,835.7,239.2,835.6z M208.8,809.6
			C208.8,809.6,208.8,809.6,208.8,809.6c-1.3-1.2-2.5-2.4-3.7-3.6c-1.9-1.8-3.8-3.6-5.6-5.5c-2-2-4-4.1-6-6.1
			c-0.9-0.9-1.8-1.9-2.7-2.8c-0.8-0.9-1.7-1.8-2.5-2.7c-2.5-2.7-4.9-5.4-7.3-8.1c0,0,0,0,0,0c-2.2-2.5-4.4-5-6.5-7.6c0,0,0,0,0,0
			c-2.1-2.5-4.2-5.1-6.3-7.7c0,0,0,0,0,0c-2.1-2.6-4.1-5.2-6.2-7.9c0,0,0,0,0-0.1c-2-2.6-4-5.3-5.9-8c0,0,0,0,0-0.1
			c-2-2.7-3.9-5.4-5.8-8.1c0,0,0,0,0-0.1c-1.9-2.7-3.7-5.5-5.6-8.3c0,0,0,0,0-0.1c-0.7-1.1-1.4-2.1-2.1-3.2c0.7,1.1,1.4,2.2,2.1,3.2
			l33.7-28.3l16.5,28.6l16.8-9.7l18.1,21.5l-12.5,14.9l25.3,21.3L208.8,809.6z M234.1,758.6l3.4-4.1l11.1,13.2l9.2-7.7l-12.4-14.8
			l2-2.4l57.4,48.2l-2,2.4l-16.8-9.7l-6,10.4l14.9,8.6l-3.4,4L234.1,758.6z M481.8,924.6c-1.9-0.1-3.9-0.2-5.8-0.3c0,0,0,0,0,0
			c-1.7-0.1-3.3-0.2-5-0.3c0,0-0.1,0-0.1,0c-1.6-0.1-3.2-0.2-4.9-0.4c-0.1,0-0.2,0-0.3,0c-1.6-0.1-3.1-0.3-4.7-0.4
			c-0.2,0-0.4,0-0.5,0c-1.5-0.1-2.9-0.3-4.4-0.4c-0.3,0-0.6-0.1-0.8-0.1c-1.4-0.1-2.7-0.3-4.1-0.4c-0.4,0-0.8-0.1-1.3-0.2
			c-1.2-0.1-2.5-0.3-3.7-0.4c-0.6-0.1-1.1-0.1-1.7-0.2c-1.1-0.1-2.2-0.3-3.3-0.4c-0.7-0.1-1.3-0.2-2-0.3c-1-0.1-2.1-0.3-3.1-0.4
			c-0.2,0-0.3-0.1-0.5-0.1c-6.4-1-12.8-2.1-19.2-3.4c0,0,0,0-0.1,0c-1.5-0.3-3-0.6-4.6-0.9c-0.1,0-0.3-0.1-0.4-0.1
			c-1.5-0.3-2.9-0.6-4.4-1c-0.2,0-0.4-0.1-0.6-0.1c-1.4-0.3-2.9-0.7-4.3-1c-0.2,0-0.4-0.1-0.6-0.1c-1.5-0.3-2.9-0.7-4.4-1.1
			c-0.2,0-0.3-0.1-0.5-0.1c-1.5-0.4-3-0.7-4.4-1.1c-0.1,0-0.3-0.1-0.4-0.1c-1.5-0.4-3-0.8-4.5-1.2c-0.1,0-0.2,0-0.3-0.1
			c-1.5-0.4-3.1-0.9-4.6-1.3c0,0-0.1,0-0.1,0c-1.6-0.5-3.2-0.9-4.7-1.4c0,0,0,0,0,0c-1.8-0.5-3.6-1.1-5.3-1.6c-0.1,0-0.1,0-0.2-0.1
			c-1.7-0.5-3.4-1.1-5.1-1.6c-0.1,0-0.3-0.1-0.4-0.1c-1.6-0.5-3.2-1.1-4.8-1.6c-0.2-0.1-0.5-0.2-0.7-0.2c-1.5-0.5-3-1-4.5-1.6
			c-0.3-0.1-0.6-0.2-0.9-0.3c-1.4-0.5-2.8-1-4.2-1.5c-0.4-0.1-0.8-0.3-1.2-0.4c-1.3-0.5-2.6-1-3.9-1.5c-0.5-0.2-0.9-0.4-1.4-0.5
			c-1.3-0.5-2.6-1-3.8-1.5c-0.5-0.2-0.9-0.4-1.4-0.5c-1.6-0.7-3.3-1.4-4.9-2c-0.1,0-0.1-0.1-0.2-0.1c-0.8-0.3-1.6-0.7-2.4-1
			c-6.2-2.6-12.2-5.4-18.2-8.3c0,0-0.1,0-0.1,0c-3-1.4-5.9-2.9-8.8-4.4c-0.1,0-0.2-0.1-0.2-0.1c-2.9-1.5-5.8-3-8.6-4.6c0,0,0,0,0,0
			c-2.9-1.6-5.8-3.2-8.7-4.9c0,0,0,0,0,0c-2.9-1.7-5.7-3.4-8.6-5.1c0,0,0,0,0,0c-5.7-3.5-11.3-7.1-16.8-10.8c0,0-0.1,0-0.1-0.1
			c-2.7-1.8-5.4-3.7-8.1-5.6c-0.2-0.1-0.4-0.3-0.6-0.4c-2.5-1.8-5.1-3.7-7.6-5.5c-0.2-0.1-0.4-0.3-0.6-0.4c0.2,0.1,0.4,0.3,0.6,0.4
			l22-38.1l25.3,21.3l12.5-14.9l24.4,14.1l-6.6,18.2l31.1,11.3l-22,38.2c0.8,0.3,1.5,0.7,2.3,1c14.1,6,28.4,11.1,42.9,15.5l7.7-43.4
			l31.1,11.3l6.6-18.2l27.7,4.9V881h33.1l-7.6,43.3C477.9,924.4,479.9,924.5,481.8,924.6C481.9,924.6,481.8,924.6,481.8,924.6z
			 M487.5,924.8c-1.8-0.1-3.6-0.1-5.4-0.2c0,0,0,0-0.1,0C483.8,924.7,485.7,924.8,487.5,924.8C487.5,924.8,487.5,924.8,487.5,924.8z
			 M493.1,924.9c-1.6,0-3.3-0.1-4.9-0.1c0,0,0,0,0,0C489.8,924.9,491.5,924.9,493.1,924.9C493.1,924.9,493.1,924.9,493.1,924.9z
			 M499.9,925c-1.9,0-3.8,0-5.7,0c0,0,0,0,0,0C496.1,925,498,925,499.9,925C499.9,925,499.9,925,499.9,925z M462.5,869v-5.3l17,3
			l2.1-11.8l-19.1-3.4v-3.1h75v3.1l-19.1,3.4l2.1,11.8l17-3v5.3H462.5z M505.8,925c-1.9,0-3.8,0-5.7,0c0,0,0,0,0,0
			C502,925,503.9,925,505.8,925C505.8,925,505.8,925,505.8,925z M511.8,924.8c-1.6,0-3.3,0.1-4.9,0.1c0,0,0,0,0,0
			C508.5,924.9,510.2,924.9,511.8,924.8C511.8,924.8,511.8,924.8,511.8,924.8z M518,924.6c-1.8,0.1-3.6,0.1-5.4,0.2c0,0,0,0-0.1,0
			C514.3,924.8,516.2,924.7,518,924.6C518,924.6,518,924.6,518,924.6z M754.4,840.6c-2.5,1.9-5,3.7-7.5,5.5
			c-0.2,0.1-0.4,0.3-0.6,0.4c-2.7,1.9-5.4,3.8-8.1,5.6c0,0-0.1,0.1-0.1,0.1c-5.5,3.7-11.1,7.3-16.8,10.8c0,0,0,0,0,0
			c-2.8,1.7-5.7,3.4-8.5,5.1c0,0,0,0,0,0c-2.9,1.7-5.8,3.3-8.7,4.9c0,0,0,0,0,0c-2.9,1.6-5.7,3.1-8.6,4.6c-0.1,0-0.2,0.1-0.2,0.1
			c-2.9,1.5-5.9,3-8.8,4.4c0,0-0.1,0-0.1,0c-6,2.9-12.1,5.7-18.2,8.3c-0.8,0.3-1.6,0.7-2.4,1c-0.1,0-0.1,0.1-0.2,0.1
			c-1.6,0.7-3.3,1.4-4.9,2c-0.5,0.2-0.9,0.4-1.4,0.6c-1.3,0.5-2.5,1-3.8,1.5c-0.5,0.2-0.9,0.4-1.4,0.5c-1.3,0.5-2.6,1-3.9,1.5
			c-0.4,0.2-0.8,0.3-1.2,0.4c-1.4,0.5-2.8,1-4.1,1.5c-0.3,0.1-0.6,0.2-1,0.3c-1.5,0.5-3,1.1-4.4,1.6c-0.2,0.1-0.5,0.2-0.7,0.2
			c-1.6,0.5-3.2,1.1-4.8,1.6c-0.2,0-0.3,0.1-0.5,0.1c-1.7,0.6-3.4,1.1-5.1,1.6c-0.1,0-0.1,0-0.2,0.1c-1.8,0.6-3.5,1.1-5.3,1.6
			c0,0,0,0,0,0c-1.6,0.5-3.1,0.9-4.7,1.4c-0.1,0-0.1,0-0.2,0c-1.5,0.4-3.1,0.9-4.6,1.3c-0.1,0-0.2,0.1-0.3,0.1
			c-1.5,0.4-3,0.8-4.5,1.2c-0.1,0-0.3,0.1-0.4,0.1c-1.5,0.4-2.9,0.8-4.4,1.1c-0.2,0-0.4,0.1-0.5,0.1c-1.4,0.4-2.9,0.7-4.3,1.1
			c-0.2,0-0.4,0.1-0.6,0.1c-1.4,0.3-2.9,0.7-4.3,1c-0.2,0-0.4,0.1-0.6,0.1c-1.5,0.3-2.9,0.6-4.4,1c-0.2,0-0.3,0.1-0.5,0.1
			c-1.5,0.3-3,0.6-4.5,0.9c0,0,0,0-0.1,0c-6.4,1.3-12.8,2.4-19.2,3.4c-0.1,0-0.3,0-0.4,0.1c-1,0.2-2.1,0.3-3.1,0.5
			c-0.6,0.1-1.3,0.2-1.9,0.3c-1.1,0.2-2.2,0.3-3.4,0.4c-0.6,0.1-1.1,0.1-1.7,0.2c-1.2,0.2-2.5,0.3-3.7,0.4c-0.4,0-0.8,0.1-1.3,0.1
			c-1.4,0.2-2.7,0.3-4.1,0.4c-0.3,0-0.6,0.1-0.9,0.1c-1.5,0.1-2.9,0.3-4.4,0.4c-0.2,0-0.4,0-0.5,0.1c-1.6,0.1-3.1,0.3-4.7,0.4
			c-0.1,0-0.2,0-0.3,0c-1.6,0.1-3.2,0.2-4.9,0.4c0,0-0.1,0-0.1,0c-1.7,0.1-3.3,0.2-5,0.3c0,0,0,0,0,0c-1.9,0.1-3.9,0.2-5.8,0.3
			c0,0-0.1,0-0.1,0c2-0.1,4-0.2,5.9-0.3l-7.6-43.3h33.1v-19.4l27.7-4.9l6.6,18.2l31.1-11.3l7.7,43.4c14.5-4.4,28.8-9.5,42.9-15.5
			c0.8-0.3,1.5-0.7,2.3-1l-22-38.2l31.1-11.3l-6.6-18.2l24.4-14.1l12.5,14.9l25.3-21.3L754.4,840.6c0.2-0.2,0.4-0.3,0.6-0.5
			C754.7,840.3,754.5,840.4,754.4,840.6z M708.5,806.8l-3.4-4l14.9-8.6l-6-10.4l-16.8,9.7l-2-2.4l57.4-48.2l2,2.4L742.2,760l9.2,7.7
			l11.1-13.2l3.4,4.1L708.5,806.8z M763.1,833.8c-0.8,0.6-1.6,1.2-2.3,1.8c-0.1,0-0.1,0.1-0.2,0.1c0.9-0.7,1.7-1.4,2.6-2.1
			C763.2,833.7,763.1,833.8,763.1,833.8z M771.9,826.7c-1,0.8-2,1.7-3,2.5c0,0-0.1,0-0.1,0.1c1.1-0.9,2.1-1.7,3.2-2.6
			C772,826.6,771.9,826.6,771.9,826.7z M780.8,819c-1.8,1.6-3.6,3.2-5.5,4.7c0,0-0.1,0.1-0.1,0.1c1.9-1.6,3.8-3.3,5.7-5
			C780.9,818.9,780.9,818.9,780.8,819z M783,817C783,817,783,817.1,783,817c1.2-1.1,2.4-2.2,3.6-3.3
			C785.5,814.8,784.2,815.9,783,817z M791.1,809.6c-1.3,1.3-2.7,2.5-4,3.7C788.4,812.1,789.8,810.9,791.1,809.6
			C791.1,809.6,791.1,809.6,791.1,809.6z M855.5,733C855.5,733,855.5,733,855.5,733c-1.8,2.8-3.7,5.6-5.6,8.3c0,0,0,0,0,0
			c-1.9,2.7-3.8,5.4-5.8,8.1c0,0,0,0,0,0c-2,2.7-3.9,5.4-6,8c0,0,0,0,0,0c-2,2.7-4.1,5.3-6.2,7.9c0,0,0,0,0,0
			c-2.1,2.6-4.2,5.2-6.3,7.7c0,0,0,0,0,0c-2.1,2.5-4.3,5.1-6.5,7.6c0,0,0,0,0,0c-2.4,2.7-4.9,5.5-7.4,8.1c-0.8,0.9-1.6,1.8-2.5,2.7
			c-0.9,0.9-1.8,1.9-2.7,2.8c-2,2.1-4,4.1-6,6.1c-1.9,1.9-3.7,3.7-5.6,5.5c-1.2,1.2-2.5,2.4-3.7,3.6c0,0,0,0,0,0l-33.7-28.3
			l25.3-21.3l-12.5-14.9l18.1-21.5l16.8,9.7l16.5-28.6L855.5,733c0.6-1,1.3-2,1.9-3C856.8,731,856.2,732,855.5,733z M871.7,706.3
			c-0.3,0.6-0.6,1.1-0.9,1.7c-0.4,0.8-0.9,1.5-1.3,2.3c1-1.7,2-3.5,2.9-5.2C872.1,705.5,871.9,705.9,871.7,706.3z M916.1,587.1
			c-0.7,3.4-1.5,6.8-2.3,10.3c0,0,0,0,0,0c0,0,0,0,0,0c-0.4,1.6-0.8,3.2-1.2,4.8c0,0,0,0,0,0.1c-0.4,1.6-0.8,3.2-1.2,4.8
			c0,0.1,0,0.1,0,0.2c-0.4,1.5-0.8,3.1-1.2,4.6c0,0.1-0.1,0.3-0.1,0.4c-0.4,1.5-0.8,2.9-1.2,4.4c-0.1,0.2-0.1,0.4-0.2,0.6
			c-0.4,1.4-0.8,2.8-1.2,4.2c-0.1,0.3-0.2,0.6-0.3,0.9c-0.4,1.3-0.8,2.6-1.2,3.9c-0.1,0.4-0.2,0.7-0.3,1.1c-0.4,1.3-0.8,2.5-1.2,3.8
			c-0.1,0.4-0.2,0.7-0.4,1.1c-0.4,1.3-0.8,2.5-1.3,3.8c0,0,0,0.1,0,0.1c-2.1,6.3-4.4,12.5-6.8,18.7c0,0,0,0,0,0c0,0,0,0,0,0
			c-0.7,1.7-1.4,3.5-2.1,5.2c0,0.1,0,0.1-0.1,0.2c-0.7,1.8-1.4,3.5-2.2,5.3c0,0,0,0,0,0c0,0,0,0,0,0c-1.1,2.7-2.3,5.4-3.5,8
			c-0.5,1.1-1,2.2-1.5,3.3c-0.7,1.4-1.3,2.9-2,4.3c-1.6,3.4-3.3,6.9-5,10.3c0,0,0,0,0,0.1c-0.8,1.6-1.6,3.1-2.4,4.7
			c-0.4,0.8-0.8,1.5-1.2,2.3c-0.2,0.4-0.4,0.8-0.6,1.2c1.4-2.7,2.8-5.4,4.2-8.1l-41.4-15.1l16.5-28.6l-16.8-9.7l9.6-26.4l19.1,3.4
			l5.7-32.6l41.4,15.1c1.4-5.8,2.6-11.6,3.7-17.5C917.1,582.3,916.6,584.7,916.1,587.1z M918.1,576.8c-0.2,0.9-0.3,1.8-0.5,2.7
			c0.3-1.8,0.7-3.6,1-5.4C918.4,575,918.3,575.9,918.1,576.8z M919,571.7c-0.1,0.6-0.2,1.3-0.3,1.9c0.3-1.8,0.6-3.6,0.9-5.4
			C919.4,569.4,919.2,570.5,919,571.7z M920.6,561.3c-0.3,2.2-0.6,4.3-1,6.5c0.5-2.8,0.9-5.7,1.3-8.5
			C920.8,559.9,920.7,560.6,920.6,561.3z M925,500L925,500c0,1.7,0,3.3,0,5c0,1.7,0,3.3-0.1,5c0,0,0,0,0,0c0,0,0,0,0,0
			c0,1.5-0.1,3-0.1,4.5c0,0.2,0,0.5,0,0.7c0,1.4-0.1,2.8-0.2,4.3c0,0.3,0,0.6,0,0.8c-0.1,1.4-0.1,2.8-0.2,4.2c0,0.3,0,0.5,0,0.8
			c-0.1,1.4-0.2,2.9-0.3,4.3c0,0.2,0,0.5,0,0.7c-0.1,1.5-0.2,2.9-0.3,4.4c0,0.2,0,0.4,0,0.6c-0.1,1.5-0.3,3-0.4,4.6
			c0,0.1,0,0.2,0,0.4c-0.1,1.6-0.3,3.1-0.5,4.7c0,0.1,0,0.1,0,0.2c-0.2,1.6-0.3,3.2-0.5,4.9c0,0,0,0,0,0c-0.2,2-0.5,4-0.7,5.9
			c0,0,0,0.1,0,0.1c-0.1,0.8-0.2,1.7-0.3,2.5c0.4-2.8,0.8-5.7,1.1-8.5h-44l5.7-32.6l-19.1-3.4v-28.1l19.1-3.4l-5.7-32.6h44
			c-0.3-2.8-0.7-5.6-1.1-8.3c0.1,0.8,0.2,1.5,0.3,2.3c0,0,0,0.1,0,0.1c0.3,2,0.5,4,0.7,5.9c0,0,0,0,0,0s0,0,0,0
			c0.2,1.6,0.4,3.2,0.5,4.9c0,0.1,0,0.1,0,0.2c0.2,1.6,0.3,3.1,0.5,4.7c0,0.1,0,0.2,0,0.4c0.1,1.5,0.3,3,0.4,4.6c0,0.2,0,0.4,0,0.6
			c0.1,1.5,0.2,2.9,0.3,4.4c0,0.2,0,0.5,0,0.7c0.1,1.4,0.2,2.9,0.3,4.3c0,0.3,0,0.5,0,0.8c0.1,1.4,0.2,2.8,0.2,4.2
			c0,0.3,0,0.6,0,0.8c0.1,1.4,0.1,2.8,0.2,4.3c0,0.2,0,0.5,0,0.7c0,1.5,0.1,3,0.1,4.5c0,0,0,0,0,0c0,0,0,0,0,0c0,1.7,0.1,3.3,0.1,5
			C925,496.6,925,498.3,925,500C925,500,925,500,925,500z"/>
	</g>
	<path class="st0" d="M410,220v10c27.6,0,50,22.4,50,50h130v-60H410z"/>
</g>
</svg>
